<?xml version="1.0" encoding="UTF-8"?>
<svg id="Layer_1" data-name="Layer 1" xmlns="http://www.w3.org/2000/svg" viewBox="0 0 1758 200">
  <defs>
    <style>
      .cls-1 {
        fill: none;
        stroke: currentColor;
        stroke-miterlimit: 10;
        stroke-width: 6px;
      }
    </style>
  </defs>
  <line class="cls-1" x1="200" y1="200" x2="200" y2="0"/>
  <line class="cls-1" x1="394" y1="200" x2="394" y2="0"/>
  <line class="cls-1" x1="397" y1="3" x2="197" y2="3"/>
  <line class="cls-1" x1="391" y1="197" x2="591" y2="197"/>
  <line class="cls-1" y1="197" x2="200" y2="197"/>
  <line class="cls-1" x1="588" y1="200" x2="588" y2="0"/>
  <line class="cls-1" x1="782" y1="200" x2="782" y2="0"/>
  <line class="cls-1" x1="785" y1="3" x2="585" y2="3"/>
  <line class="cls-1" x1="779" y1="197" x2="979" y2="197"/>
  <line class="cls-1" x1="979" y1="200" x2="979"/>
  <line class="cls-1" x1="1173" y1="200" x2="1173"/>
  <line class="cls-1" x1="1176" y1="3" x2="976" y2="3"/>
  <line class="cls-1" x1="1170" y1="197" x2="1370" y2="197"/>
  <line class="cls-1" x1="1367" y1="200" x2="1367"/>
  <line class="cls-1" x1="1561" y1="200" x2="1561"/>
  <line class="cls-1" x1="1564" y1="3" x2="1364" y2="3"/>
  <line class="cls-1" x1="1558" y1="197" x2="1758" y2="197"/>
</svg>