<?xml version="1.0" encoding="UTF-8"?>
<svg id="Layer_1" data-name="Layer 1" xmlns="http://www.w3.org/2000/svg" viewBox="0 0 24 24">
  <defs>
    <style>
      .cls-1 {
        fill: currentColor;
      } 
    </style>
  </defs>
  <path class="cls-1" d="M20.06,4.21h3.94v15.39h-3.76c-.04-.3-.06-.61-.1-.92-.08.09-.17.17-.26.26-.91.78-2.15.9-3.3.85-1.46-.15-2.81-.79-3.76-1.95-1.07-1.41-1.31-3.09-1.19-4.83.19-1.45.82-2.76,1.92-3.71.64-.46,1.34-.84,2.1-1.02.06-.01.13-.04.19-.05.4-.06.79-.06,1.2-.06h.25c.76,0,1.45.16,2.11.55.06.04.13.08.2.12.07.04.19.14.35.29.04-1.62.06-3.25.1-4.91h0ZM16.22,12.08c-.61.8-.64,1.63-.55,2.61.14.67.47,1.17,1.01,1.58.53.32,1.13.36,1.74.28.58-.18,1.02-.47,1.36-1,.47-.91.48-1.79.19-2.75-.22-.6-.55-.96-1.09-1.26-.92-.41-1.96-.22-2.65.53Z"/>
  <path class="cls-1" d="M9.71,9.32c.58.49.98,1.06,1.3,1.76v.28c-.36.19-.72.39-1.08.58-.12.06-.24.13-.36.19-.18.1-.35.19-.53.29-.11.06-.22.12-.32.17-.22.11-.41.18-.65.23-.04-.06-.08-.11-.12-.17-.47-.63-.82-1.06-1.62-1.22-.58-.06-1.06.09-1.56.38-.43.36-.72.84-.83,1.39-.08.98-.05,1.87.58,2.67.54.43.98.63,1.68.6.61-.09,1.01-.29,1.42-.77.16-.22.31-.43.46-.64.4.12.76.28,1.13.49.11.06.22.12.32.17.11.06.22.12.32.18.11.06.23.12.34.18.28.15.55.3.82.45-.17.96-.82,1.73-1.58,2.29-1.46.94-3.22,1.15-4.91.79-1.56-.38-2.87-1.2-3.73-2.59-.82-1.54-.98-3.27-.49-4.95.48-1.46,1.39-2.57,2.75-3.26,2.18-.98,4.72-.91,6.68.51h0Z"/>
  <path class="cls-1" d="M.02,20.81h23.98c0,1.48-.12,2.44-.37,2.87-.4.36-.85.32-1.36.32H1.51c-.5,0-.82-.06-1.2-.43-.18-.37-.28-1.3-.28-2.78v.02Z"/>
  <path class="cls-1" d="M1.74,0h20.76c.5,0,.82.06,1.2.43.18.37.28,1.3.28,2.78H.02C.02,1.72.14.75.38.32.79-.04,1.24,0,1.74,0Z"/>
</svg>