<?xml version="1.0" encoding="UTF-8"?>
<svg id="Layer_1" data-name="Layer 1" xmlns="http://www.w3.org/2000/svg" viewBox="0 0 15.43 24">
  <defs>
    <style>
      .cls-1 {
        fill: currentColor;
      }
    </style>
  </defs>
  <rect class="cls-1" x="1.71" y="4.29" width="1.29" height="13.71"/>
  <rect class="cls-1" x="12.43" y="4.29" width="1.29" height="13.71"/>
  <path class="cls-1" d="M7.71,24c-3.31,0-6-2.69-6-6h1.29c0,2.6,2.11,4.71,4.71,4.71v1.29Z"/>
  <path class="cls-1" d="M7.71,24v-1.29c2.6,0,4.71-2.11,4.71-4.71h1.29c0,3.31-2.69,6-6,6Z"/>
  <rect class="cls-1" x="7.07" y="4.29" width="1.29" height="19.07"/>
  <rect class="cls-1" x="2.36" y="16.71" width="10.71" height="1.29"/>
  <rect class="cls-1" x="2.36" y="10.71" width="10.71" height="1.29"/>
  <g id="Lamp_Rectangle" data-name="Lamp Rectangle">
    <path class="cls-1" d="M15.43,5.14c0,.47-.39.86-.86.86H.86c-.47,0-.86-.39-.86-.86V.86c0-.47.39-.86.86-.86h13.71c.47,0,.86.39.86.86v4.29Z"/>
  </g>
</svg>