<?xml version="1.0" encoding="UTF-8"?>
<svg id="Layer_1" data-name="Layer 1" xmlns="http://www.w3.org/2000/svg" viewBox="0 0 878.15 250">
  <defs>
    <style>
      .cls-1 {
        fill: currentColor;
      }
    </style>
  </defs>
  <path class="cls-1" d="M178.92,64.06c3.08.44,9.07,3.38,11.01,5.93,4.99,6.57,5.42,25-4.53,26.97-.74,2.87,2.23,1.81,4.35,3.1,7.85,4.8,7.67,26.18,1.63,32.26-13.06,10.79-60.55,3.42-79.74,5.48v-42.36c0-.11,1.39-1.5,1.5-1.5h62.79c8.76,0,10.05-20.93-1-20.93h-63.29v-8.97h67.28ZM121.61,128.84h51.33c1.26,0,8.28-1.61,9.46-2.5,4.53-3.4,4.51-17.99-1.25-20.66-.61-.28-5.89-1.75-6.22-1.75h-53.32v24.92h0Z"/>
  <path class="cls-1" d="M598.03,85c-1.66-.31-8.42.45-8.93-.05-.37-.36-.9-7.65-2.57-9.89-1.24-1.63-5.99-2.68-8.04-2.92-9.19-1.07-28.44-.95-37.8-.15-8.1.7-13.77,3.23-13.35,12.43.34,7.25,5.87,10.01,12.34,10.57,12.94,1.15,44.57-2.93,54.31,3.5,9.28,6.13,8.28,30.31-1.59,36.18-8.89,5.29-42.45,5.06-53.54,4.01-10.58-1.01-20.26-4.37-21.56-16.31-1.07-9.9.35-10.13,9.97-9.48-.17,8.2-.84,12.99,7.92,15.5,9.01,2.58,37.68,2.31,46.96.03,10.4-2.55,11.08-21.5,1.19-23.26-14.36-2.56-51.25,4.07-61.57-6.22-7.55-7.53-6.39-27.72,4.16-32.72,9.34-4.44,41.46-4.08,52.69-3.19,14.44,1.14,20.88,6.81,19.41,21.97h.01Z"/>
  <path class="cls-1" d="M399.69,87.99c-1.67-.27-9.64.36-9.98,0-.97-1.02,1.65-11.46-7.73-14.69-6.58-2.26-34.61-1.98-42.63-1.3-10.43.9-14.55,3.86-15.45,14.45-.6,7-.82,30.68,1.81,36.13,2.16,4.47,5.96,5.87,10.63,6.31,8.95.84,36.46,1.23,44.66-.27,9.33-1.69,8.75-9.17,10.27-16.73l8.41.02c.73,11.28-.1,22.32-12.7,25.68-9.13,2.44-49,2.26-58.3-.04-6.66-1.64-11.69-5.34-13.95-11.96-3.27-9.56-3.14-44.48,2-53.25,4.09-6.97,11.02-8.73,18.6-9.31,11.26-.85,44.05-1.26,53.61,2.29,9.24,3.44,10.89,13.98,10.72,22.67h0Z"/>
  <path class="cls-1" d="M427.59,64.06v56.31c0,2.53,5.23,7.31,7.94,8,5.59,1.45,39.69,1.31,46.29.38,3.64-.51,9.56-4.9,9.56-8.38v-56.31h10.96v53.32c0,1.86-2.13,8.79-3.12,10.83-4.32,8.97-14.32,10.06-23.25,10.63-10.99.71-42.25,1.34-50.71-4.2-3.91-2.55-8.63-10.78-8.63-15.29v-55.32h10.96Z"/>
  <path class="cls-1" d="M97.69,137.81c-3.49-.38-8.39,1.24-11.01-1.44l-37.33-63.32-36.87,63.78c-1.62,1.45-7.65,1.32-10,.99-1.39-.2-1.7.57-1.5-1.51l41.04-72.09c8.33.29,11.8-3.02,16.58,4.52,11.06,17.44,30.06,47.47,38.12,65.53.53,1.19,1.34,1.97.95,3.53h0Z"/>
  <path class="cls-1" d="M302.01,137.81c-3.06-.4-8.18,1.08-10.48-.98l-37.86-63.8-36.86,63.8c-1.23,1.64-11.49,1.22-11.48.48l41.38-72.24c2.03-1.68,13.13-2.08,14.91,1.03l39.62,68.02.78,3.7h0Z"/>
  <path class="cls-1" d="M0,198.61v-29.9h27.41c3.26,0,5.63,6.11,5.3,9.21-.73,6.99.27,4.72.67,10.19.23,3.13-.99,10.51-4.98,10.51H0h0ZM26.92,180.67c1.36-1.93,1.05-7.97-1.5-7.97H4v7.97h22.92ZM4,194.62h21.43c3.57,0,7.03-8.94-1.97-9.99-2.42-.28-17.49-.27-18.52.45-1.83,1.28-.62,7.17-.94,9.53h0Z"/>
  <path class="cls-1" d="M569.62,185.65c-6.9-1.5-8.68-15.13.23-16.7,3.32-.59,19.72-.84,22.49-.03,2.86.84,5.3,5.84,4.69,8.76-6.71,1.95-4.13-3.7-7.67-4.78-1.83-.57-14.54-.57-16.72-.16-5.16.97-3.79,7.94-2.02,7.94h19.93c.29,0,5.04,2.02,5.25,2.22,2.44,2.39,2.27,13.66-2.7,15.28-2.78.9-21.19.93-24.26.23-5.14-1.18-4.95-6.44-4.69-10.75,6.27-1.48,3.64,3.55,5.18,5.77,1.19,1.7,16.39,1.58,19.02,1,6.74-1.5,4.75-8.76,2.2-8.76-5.34,0-16.52.96-20.93,0h.01Z"/>
  <path class="cls-1" d="M451.01,168.71h27.91c10.52,0,10.51,29.9,0,29.9h-27.91c-.11,0-1.5-1.39-1.5-1.5v-26.91c0-.27,1.17-.99,1.5-1.5ZM454.5,172.7v20.43c0,.11,1.39,1.5,1.5,1.5h20.93c6.52,0,6.52-21.93,0-21.93h-22.43Z"/>
  <path class="cls-1" d="M138.05,168.71c6.24,1.11,7.98,7.77,6.28,13.26-.44,1.42-2.54,2.43-2.57,3.17s5.12,9.84,2.77,13.49h-4.99c.49-1.82-.13-10.96-2.48-10.96h-21.43c-.28,1.78.39,10.58,0,10.96-.58.55-4.98-.24-4.98-1.5v-26.91c0-.11,1.39-1.5,1.5-1.5,7.1,0,19.66-1.11,25.91,0h0ZM115.63,172.7c.37,2.5-.96,9.21.94,10.53,1.72,1.21,19.95.45,22.03-1.02,2.36-1.66.67-9.51-1.53-9.51h-21.43Z"/>
  <path class="cls-1" d="M334.9,168.71l7.01.49,23.89,23.43v-23.92h4.98v29.9c-1.75-.13-3.77.32-5.46-.02-4.82-.97-20.46-21.59-26.43-24.9v24.92c0,.2-3.99.2-3.99,0v-29.9Z"/>
  <path class="cls-1" d="M258.15,198.61c-6.62,1.74-4.54-2.99-7.4-5.05-1.55-1.13-20.39-1.54-22.82-.96-1.38.33-2.01,5.35-2.83,5.85-.58.36-6.76,1.11-5.81-1.32l15.88-26.98c1.97-2.08,6.27-2.38,7.92.16.81,3.42,16.42,27.12,15.05,28.3h0ZM230.25,188.64h17.94c-1.12-1.92-7.62-14.95-8.48-14.96-2.28-.02-10.13,14.37-9.46,14.96Z"/>
  <path class="cls-1" d="M773.41,232.5c6.05.18,13.13,4.04,18.71,4.78,4.55.61,9.37-4.23,15.17-3.3,2.06-3.07,15.12-11.88,15.81-14.14.82-2.69-.61-4.91-2.14-6.97-5.78-1.66-24.03-18.65-28.09-18.33-2.9.23-4.76,9.19-4.02,11,.27.67,5.15,8,5.73,8.29,3.2,1.58,5.76-.65,9.13-.27,9.03,1,9.12,17.97-4.67,14.71-5.61-1.33-3.6-6.21-5.33-7.84-4.37-4.1-9.32,2.59-14.35-2.36-7.55-7.44,2.01-11.03,3.59-16.43,1.98-6.8.26-7.36-.52-12.58-1.1-7.35,5.69-11.88,11.88-7.85,4.67,3.05,2,5.98,3.24,8.22.8,1.46,25.64,18.25,27.36,18.98,5.27,2.24,13.34-.29,13.41,8.61.07,9.45-6.48,5.97-11.05,8-1.41.63-17.32,14.9-17.73,16.16-.86,2.64.4,6.78-3.92,8.03-9.64,2.79-8.52-3.19-12.96-5.56-5.82-3.11-19.39-3.27-24.56-6.34-1.03-.61-1.65-.97-1.66-2.32l.18-215.14c.48-1.39,9.61-7.17,11.37-9.56,2.57-3.48,1.65-9.57,7.88-10.13,7.92-.71,6.38,3.93,10.12,6.93,1.32,1.06,12.73,6.07,14.54,6.47,4.14.91,7.89-1.57,11.72.17,4.4,1.99,5.33,9.05,1.53,12.46-4.38,3.92-7.04.46-9.8,1.13-.88.21-13.58,9.76-14.13,10.82-1.85,3.59-.67,9.83-7.98,9.81-8.83-.02-10.42-13.15-2.51-15.4,4.62-1.32,5.34,1.56,12.16-2.72.83-.53,7.72-6.07,8.09-6.58.64-.87,1.12-1,.68-2.53-.4-.9-15.89-7.67-17.35-7.52s-2.54,1.68-4.09,1.96c-2.2.4-4.52-.36-6.73.25-.5.14-8.2,5.53-8.46,5.98-1.01,1.74-.59,35.55-.26,40.19.47,6.56,1.68,5.45,3.69,9.24,3.06,5.78,9.11,18.71,12.84,23.07,2.18,2.57,5.71,2.81,7.32,5.63,6.56,11.48-12.39,16.47-13.8,5.79-.44-3.28,1.28-6.02.77-8.6-.66-3.3-8-15.04-10.76-17.73v153.49h-.02Z"/>
  <path class="cls-1" d="M752.48,178.68l1.01,7.97c1.23.61,1.2-4.28,2.97-1.99.21.27-.29,3.17,1.01,4l-.1,48.74-26.07,6.08c-1.82,6.22-10.86,9.14-14.78,3.57-1.47-2.08-.42-4.56-1.85-7.13-.56-.99-15.99-14.44-17.04-14.85-4.77-1.89-14.03.13-10.72-10.79,1.69-5.6,7.46-4.02,11.02-4.92,3.24-.83,6.4-4.39,8.47-5.75,2.78-1.83,20.35-13.04,20.96-14.14,1.18-2.13-1.32-4.49,2.68-7.78,5.97-4.93,13.5.03,12.46,7.4-.3,2.1-1.95,3.4-1.91,5.93.03,1.51,1.44,7.55,2.12,8.92,1.9,3.74,5.88,2.03,4.75,10.09-1.45,10.31-11.79,2.66-16.24,6.49-1.52,1.32-1.43,6.66-5.36,7.82-7.36,2.19-11.29-2.04-10.31-9.3,1.09-7.97,10.54-3.11,14.76-5.14.59-.28,5.45-7.68,5.65-8.22.19-.51-1.31-10.36-1.61-10.81-.25-.38-2.79-1.22-3.38-1.19-2.32.11-1.91,2.29-2.6,2.8-.25.19-1.32.7-3.27,2.2-6.77,5.21-14.85,8.44-20.41,14.51-1.78,1.94-4.8,1.34-2.87,6.75.39,1.1,16.24,15.18,17.38,15.38,1.35.24,3.27-1.09,5.64-.62,2.14.43,3.24,2.81,6.16,2.89,5.3.15,14.56-4.66,20.35-5.17.53-16.74-.22-33.56.06-50.31.03-1.8,1.07-3.19,1.07-3.37v-.03Z"/>
  <path class="cls-1" d="M832.22,200.6c.35-1.87,2.91-3.75,2.99-5.98,1.75-.71,4.74-.42,6.06-1.66,4.34-4.11,9.89-21.52,14.68-26.97.71-3.29-3.67-5.69.16-10.75,1.37-1.8,4-2.3,4.79-4.18.7-1.65,5.1-28.09,4.92-29.57-.35-2.87-4.45-4.55-3.56-8.85.45-2.19,2.84-3.17,2.81-6.08-.02-2.09-7.13-29.72-8.16-31.8-1.77-3.55-6.27-1.72-6.69-8.33-.12-1.93.91-3.66.51-5.38-.26-1.12-12.14-18.17-13.04-18.9s-7.28-2.04-8.47-1.99c-.57-2.33-.02-6.76-2.99-5.98.77-1.08.34-5.8,4-7.46,3.9-1.75,10.77-.64,11.76,4.2.5,2.41-.69,5-.25,6.29.4,1.18,13.79,19.28,14.85,19.92,2.87,1.77,6.28.87,8.38,4.56,3.51,6.16-1.89,7.71-1.69,11.56.13,2.64,6.87,28.57,8.04,30.94,1.78,3.59,6.63,3.29,6.82,9.25.19,5.96-4.33,6.2-5.84,9.16-.69,1.35-5.2,27.94-5.1,29.74.17,3.14,4.94,4.61,2.12,11.14-1.76,4.1-5.92,3.19-8.1,5.84-.97,1.17-13.69,24.85-14.3,26.6-1.11,3.19,2.07,6.61-1.18,10.74-4.61,5.87-15.02,1.86-13.54-6.06h0Z"/>
  <path class="cls-1" d="M797.33,125.85c4.99.94,15.61,1.69,20.47,1.04,2.97-.4,5.26-2.98,7.95-2.93,8.2.16,10.32,12.15,3.22,15.1-1.91.8-4.44.36-5.5.98-.48.28-6.02,8.11-6.1,9.17-.52,7.15,13.47,21.62,17.6,13.78.71-1.34,3.95-10.75,4.07-12,.24-2.46-2.79-4.74-1.81-9.67.72-3.62,4.06-3.51,4.91-5.3.58-1.22,2.21-14.28,1.87-15.43-.1-.34-4.07-5.46-4.35-5.69-1.67-1.37-15.15-2.41-17.98-2.07-1.93.24-1.28,2.31-4.12,2.83-16.22,2.95-11.85-19.91.67-14.2,2.14.98,3.36,4.86,6.51,5.44,2.03.38,11.88,1.22,13.96,1.13,3.12-.13,4.37-1.88,6.92-2.18,4.83-.57,9.25,1.13,9.59,6.56.3,4.81-3.17,5.9-4.42,9.63-.98,2.94-2.16,11.35-1.6,14.25.62,3.22,3.56,3.87,2.92,8.92-.62,4.91-3.64,4.04-5.92,6.11-1.25,1.14-5.64,13.22-5.82,15.15-.24,2.6,1.57,4.19,1.17,7.08-.9,6.3-5.98,9.27-11.72,6.03-4.34-2.45-2.6-6.2-4.13-8.82-.41-.7-11.6-10.2-12.39-10.4-3.02-.77-6.9,2.09-9.9-3.19-5.94-10.49,5.5-10.46,9.4-13.3,1.28-.93,6.66-8.76,5.43-10.02-2.34-.09-4.69-.55-6.99-1.01l-.5-.98-.5.98c-.65-.09-1.35.09-1.99,0l-1-1c-.66-.06-1.34.05-1.99,0-.14-1.5-2.85-1.5-2.99,0-1.64-.04-3.34-.07-4.98,0-3.43-1.49-1.91-3.57,0-5.98h.03Z"/>
  <path class="cls-1" d="M757.46,100.94c-4.43.65-2.28-.89-3.49-4-.21,0-1.47,3.73-1.5,4-2.29-6.74-.38-14.86-1.01-21.93-5.18,5.57-9.19,13.78-11.95,20.93-.47.04-3.85,1.2-3.98,1-.23-1.05,1.38-3.54.99-3.98-1.38-1.53-3.72,5.51-3.99,0,1.71-1.02,19.18-31.98,19.7-34.62,2.17-10.68-.98-27.12.02-38.44-.41-1.38-9.47-9.28-10.38-9.45-1.28-.24-3.55,1.05-5.78.78-2.06-.25-3.5-2.19-5.83-1.84-1.56.24-4.14,2.23-6.16,2.88-2.48.8-6.48.84-8.24,2.23-.15.12-2.25,3-2.24,3.2.02.97,14.7,11.08,15.65,11.27,1.88.37,3.5-1.21,6.28-.42,8.29,2.37,6.23,16.53-3.43,15.55-7.19-.73-5.33-7.48-7.51-10.53-.46-.64-11.79-8.85-12.71-9.29-3.82-1.81-14.28,1.77-13.27-8.48,1.01-10.2,9.66-5,14.92-6.01,1.14-.22,14.66-6.06,15.37-6.65,3.43-2.84,2.44-8.46,11.02-6.87,4.99.93,4.64,6.51,6.49,9.49,2.05,3.32,10.13,6.5,10.97,10.95.08,26.73-.03,53.48.02,80.21h0Z"/>
  <path class="cls-1" d="M826.24,34.16c2.97-.78,2.42,3.65,2.99,5.98-.66.02-10.41,5.49-11.63,6.31-.76.51-1.08,2.24-2.33,3.12-1.86,1.3-13.32,7.97-13.73,8.71-.22.4-1.21,8.22-1.03,9,.15.66,5.68,8.41,6.23,8.81,2.07,1.49,5.2.6,7.54,2.41,2.01,1.55,1.71,3.94,2.15,4.32,1.23,1.05,17.66,1.81,20.76,2.16-3.54-3.97-7.63-13.94-12.03-16.37-3.51-1.92-7.34-.48-8.51-6.52-2-10.25,14.51-13.24,15.55-2.42.18,1.87-1.03,3.63-.57,5.42.37,1.43,10.43,15.7,11.6,16.34,2.45,1.34,5.57.39,7.17,3.79,3.13,6.71-2.4,13.13-9.5,11.53-3.33-.75-3.41-3.71-6.1-4.89-2.47-1.09-16.11-2.26-18.99-1.82-3.53.54-5.88,3.52-10.51,1.42-5.78-2.62-2.56-8.99-3.88-11.98-.33-.76-6.84-9.83-7.38-10.16-2.92-1.79-8.91-.64-8.19-8.37.84-8.93,7.25-5.65,12.2-7.6,1.58-.63,27.18-17.79,28.17-19.18h.01Z"/>
  <path class="cls-1" d="M661.78,71.03c-.1-.33-2.57-1.89-2.8-4.74-.71-8.54,7.81-7.12,9.88-8.87.89-.77,12.96-18.2,13.33-19.32,1.29-3.86-.47-10.02,5.22-11.71,9.55-2.84,8.46,3.55,11.55,7.49,1.05,1.34,26.29,18.84,27.87,19.47,5.76,2.29,14.11-.7,11.5,10.99-1.2,5.33-5.14,3.51-7.5,4.97-.56.35-7.5,9.97-7.74,10.73-.87,2.59,2.37,7.86-2.92,10.98-6.16,3.64-8.77-1.32-10.98-1.66-.7-.11-4.08.5-5.53.6,2.97-3.49-4.45-1.62-6.25-2.03-.37-.08-2.31-2.89-3.72-2.95.2-.02.78-.83,1.58-.93,3.57-.44,9.37.09,12.69-1.05,1.06-.36.7-3,2.67-4.52,2.35-1.81,5.46-.93,7.54-2.41,4.55-3.24,7.28-12.47,5.21-17.81l-25.77-17.64c-1.48-.51-7.76.09-9.16.51-1.14.35-13.36,17.63-13.96,19.25-1.34,3.64,1.51,3.16-1.73,8.65-3.41.8-7.65,4.11-10.96,1.99h0Z"/>
  <path class="cls-1" d="M704.64,158.74c2.44-2.07,3.52-7.17,2.8-10.2-.15-.64-5.57-8.24-6.02-8.5-1.06-.61-3.57-.19-5.5-.99-7.46-3.07-4.91-15.09,3.24-15.06,2.83,0,4.67,2.35,7.03,2.79,3.14.59,23.56-1.09,26.61-2.17,2.17-.77,3.12-3.42,6.31-3.74,7.37-.76,11.24,8.8,6.44,13.51-1.29,1.26-3.07,1.22-3.99,1.99-1.04.88-5.98,20.71-5.99,23.02,0,3.67,4,4.43,2.52,9.34-1.55,5.2-7.79,8.13-12.54,4.96-.24-.16-.11-2.77-3.99-2.99v-1l1-1c.2-.87-.24-2.25,0-2.99l1-1c2.62-6.25,2.38-2.76,4.98-5.46.86-.89,5.98-22.43,5.9-24s-1.19-2.79-2.62-3.22c-5.37-1.62-18.95,2.21-25.22,1.79-1.81,1.79,5.37,10.99,7.7,11.73,3.66,1.17,7.41-.61,8.22,5.79,1.13,8.79-4.84,8.6-10.94,8.38-.88-.03-2.05.92-2.53.92-.27,0-1.21-4.93-3.03,0l-1.42-1.9.03-.02Z"/>
  <path class="cls-1" d="M656.8,146.78c.24-.65,1.96-3.3,2.98-1.98.64.82-1.27,5.77,1,5.97l2-4.98c.27,1.52.65,5.97,1.22,6.76.75,1.03,4.11.53,5.31,4.15,1.51,4.53-1.52,9.41,1.5,15.2.66,1.27,2.22,1.37,2.79,2.4,1.89,3.48,8.54,17.88,10.83,19.1,6.18,3.29,8.5-1.7,12.77-4.76,2.31-1.66,5.88-3.63,8.09-5.32,3.03-2.32,13.09-12.78,16.3-12.6,3.88.22,3.75,2.83,3.99,2.99-4.3,5.72-10.88,9.5-16.5,13.95-3.09,2.44-13.03,9.08-14.98,11.89-1.84,2.66-.95,5.16-2.85,7.12-4.77,4.88-13.22,2.46-13.57-4.56-.1-1.88,1.02-3.53.62-5.48-.31-1.51-13.43-25.84-14.61-27.28-2.95-3.56-10.86-2.45-8.67-11.85,1.25-5.36,2.93-2.29,1.8-10.68h0Z"/>
  <path class="cls-1" d="M679.72,152.76c-.12-.12.29-1.27-.25-1.7-1.69-1.39-5.9.39-6.71-5.86-.64-4.93,1.98-5.34,2.72-8.12s-.29-12.47-1.2-15.28c-1.33-4.13-6.44-4.87-4.11-11.96,2.49-7.56,11.12-2.29,14.98-1.85,1.62.18,13.13-.76,14.96-1.1,4.6-.85,5.47-9.24,14.23-5.22,4.69,2.15,4.56,12.03-.7,13.76-6.64,2.19-7.89-2-12.47-2.59-1.86-.24-14.54.93-15.52,1.51-.88.53-1.69,3.19-2.56,4.47-.45.66-1.95.84-2.2,1.25-.42.69,1.33,14.59,1.82,15.98.57,1.56,4.21,1.63,4.92,5.28s.47,5.24-1.96,7.45c-.16.14-.79-.04-.98.49l.98.51c.11.62-.16,1.48,0,1.99l-1.99,5.97c-3.75.86-.99-3.36-2.22-4.8-.4-.47-1.63-.05-1.76-.18v.02Z"/>
  <path class="cls-1" d="M672.75,69.04c-1.92,3.26-3.75,3.84-4.79,5.67-1.46,2.53-2.31,9.27-3.25,12.51-.48,1.64-.78,2.47-1.35,4.78-1.13,4.53-4.4,11.85-3.32,16.13.42,1.66,2.32,3.18,2.46,5.41.25,3.84-3.48,5.56-3.71,7.83-.46,4.49,2.35,13.13,2,20.42-.1,2.11-.32,2.22,1.99,1.99.09.63-.11,1.38,0,1.99l-2,4.98c-2.25-.2-.35-5.15-1-5.97-1.03-1.32-2.75,1.34-2.98,1.98-.69-5.13-2.63-20.32-4.23-24.18-1.42-3.43-6.09-2.57-5.81-9.19.26-6.04,5-5.61,6.8-9.24,1.23-2.46,8.73-31.52,8.22-33.14,3.31,2.11,7.55-1.2,10.96-1.99h0Z"/>
  <path class="cls-1" d="M792.35,146.78c.38,1.75,2.66,10.4,3.17,11.28,1.65,2.87,8.48,3.87,7.04,11.41l32.65,25.15c-.08,2.23-2.64,4.11-2.99,5.98l-33.33-26.01c-2.84-1.16-6.57,1.74-10.2-2.2-4.83-5.24.6-9,.73-13.1.05-1.51-1.55-8.32-2.04-10.52,2.46-.29,2.08-2.79,4.98-1.99h0Z"/>
  <path class="cls-1" d="M752.48,100.94c.03-.27,1.29-4,1.5-4,1.21,3.11-.94,4.64,3.49,4,.06,29.22-.04,58.49,0,87.71-1.29-.83-.79-3.72-1.01-4-1.78-2.28-1.74,2.6-2.97,1.99l-1.01-7.97c.36-23.66-2.69-55.36,0-77.74h0Z"/>
  <path class="cls-1" d="M704.64,158.74l1.42,1.9c1.82-4.93,2.76,0,3.03,0,.49,0,1.66-.95,2.53-.92l-12.72,11.19c1.47,10.56-13.88,13.77-15.8,3.79-.65-3.38,1.44-4.87,1.33-7.35-.17-3.8-4.38-10.32-4.7-14.61.13.13,1.36-.29,1.76.18,1.23,1.45-1.52,5.65,2.22,4.8l1.99-5.97c1.25,4.02,4.82,16.41,9.95,13.46,1.89-3.15,6.83-4.64,8.99-6.48Z"/>
  <path class="cls-1" d="M684.71,80c.91-1.4,8.28-13.97,8.45-14.82.67-3.32-2.72-9.62,3.45-11.64,12.12-3.99,14.07,10.94,7.79,13.77-2.02.92-4.39.23-6.23,1.74-1.04.85-5.89,9.23-7.52,11.47-.87,1.2-.71,2.98-2.96,2.47-.66-.56-3.47-.12-2.99-2.99h0Z"/>
  <path class="cls-1" d="M787.37,148.78c-.38-1.69-2.72-10.6-3.14-11.31-1.39-2.32-5.07-1.48-6.37-5.58-2.76-8.75,4.49-13.22,12.26-9.31,2.4,1.21,2.72,2.43,7.23,3.28-1.91,2.41-3.43,4.5,0,5.98-2.4.1-5.98-.48-6.84,2.71-.19.71,1.49,10.56,1.85,12.24-2.9-.8-2.52,1.7-4.98,1.99h0Z"/>
  <path class="cls-1" d="M687.7,83c.13.11-.08.67,0,1-3.28.14-2.76.46,0,1,2.42.48,3.31.29,5.98,0,1.4.06,3.35,2.86,3.72,2.95,1.81.42,9.22-1.46,6.25,2.03-3.11.22-10.65.66-13.04,1.43-2.2.71-2.38,2.59-3.68,3.57-6.57,4.95-14.6.36-12.71-7.99,1.32-5.78,3.1-3.22,6.81-3.98.23-.05,3.56-2.78,3.69-2.98-.48,2.87,2.33,2.43,2.99,2.99h0Z"/>
  <path class="cls-1" d="M732.55,96.95c.26,5.52,2.61-1.53,3.99,0,.4.44-1.22,2.93-.99,3.98.13.2,3.51-.96,3.98-1,.66-.05,1.34.02,1.98,0,3.59,14.09-17.51,15.43-14.93,1.53.84-4.53,4.3-3.53,5.97-4.52h0ZM731.05,98.94v1c.65-.33.65-.67,0-1Z"/>
  <path class="cls-1" d="M805.31,131.83c-.18,0-2.16.02-2.99,0,.14-1.5,2.85-1.5,2.99,0Z"/>
  <path class="cls-1" d="M660.79,141.8c2.81-.31,1.72.19,1.99,1.99-2.31.23-2.09.12-1.99-1.99Z"/>
  <path class="cls-1" d="M687.7,83.99v1c-2.76-.54-3.28-.86,0-1Z"/>
  <path class="cls-1" d="M721.58,169.71c.06-.52.98-.9,1-1l-1,1Z"/>
  <path class="cls-1" d="M685.7,149.77l-.98-.51c.19-.53.82-.35.98-.49v1Z"/>
  <path class="cls-1" d="M811.29,132.83c-.32-.06-.67.05-1,0l.5-.98.5.98Z"/>
  <path class="cls-1" d="M808.3,132.83c-.72-.09-.93-.99-1-1l1,1Z"/>
  <path class="cls-1" d="M722.58,165.72c.26-.8.97-.93,1-1l-1,1Z"/>
  <path class="cls-1" d="M731.05,98.94c.65.33.65.67,0,1v-1Z"/>
</svg>