<?xml version="1.0" encoding="UTF-8"?>
<svg id="Layer_1" data-name="Layer 1" xmlns="http://www.w3.org/2000/svg" viewBox="0 0 2000 765.85">
  <defs>
    <style>
      .cls-1 {
        fill: currentColor;
      }
    </style>
  </defs>
  <path class="cls-1" d="M166.23,765.85c-86.7-28.35-150.66-88.93-159.13-183.15C-1.52,486.83-3.37,272.89,7.6,179,18.86,82.66,105.59,9.6,201.7,6.06c300.39,15.03,619.14-19.24,917.36-.05,111.03,7.15,187.95,75.02,200.11,186.02-9.07-1.65-46.3,2.58-49.16-.21-2.02-1.96-7.99-41.33-13.97-54.39-20.24-44.19-63.37-72.15-110.25-81.53l-955.08-.69c-66.85,6.08-118.92,54.03-133.8,118.19,7.73,132.28-11.94,279.02-.67,409.56,5.9,68.28,56.58,121.98,124.33,133.08l954.94.84c69.72-7.64,116.76-52.19,132.97-119.05,1.89-7.78.29-27.71,1.28-28.76,1.79-1.88,40.84,1.36,49.46.04-1.71,99.94-70.32,172.39-164.73,196.72H166.23v.02Z"/>
  <path class="cls-1" d="M2000,394.26v49.18c-20.08,67.92-87.16,97.71-142.75,43.72v98.36h-49.41v-256.83c34.42,1.88,46.47-12.85,46.67,27.38,45.07-60.74,124.32-25.94,145.49,38.2h0ZM1937.66,379.79c-61.75-61.39-122.07,61.79-51.51,92.35,49.09,21.26,89.12-54.96,51.51-92.35Z"/>
  <path class="cls-1" d="M1269.78,252.18l49.44-.03c7.48,7.46-4.47,180.15-.46,210.78,1.32,10.1,10.19,7.15,11.27,11.58,13.78,56.58-52.1,51.87-49.32,7.18-15.52,10.52-28,27.5-47.86,31.52-165.66,33.53-117.7-288.82,36.94-157.2v-103.83h-.01ZM1207.83,368.09c-42.58,9.64-46.49,97.8,11.21,107.22,61.79,10.09,70.2-91.54,23.6-105.92-11.47-3.54-23.11-3.96-34.8-1.31h0Z"/>
  <path class="cls-1" d="M243.09,252.18v103.83c55.79-58.38,134.93-28.98,145.94,49,12.04,85.27-86.27,152.85-148.71,76.71-1.46,37.64-6.79,26.64-41.15,27.3V252.19h43.92ZM279.94,368.1c-55.66,12.66-49.16,112.17,14.98,107.93,66.88-4.42,60.75-125.16-14.98-107.93Z"/>
  <path class="cls-1" d="M967.81,396.99c-.12,2.5-14.11,9.48,2.67,8.15,35.97-35.29,57.9-90.29,118.12-76.4l-65.11,78.24,70.6,101.98c-13.14-2.51-44.42,4.37-53.8-1.08-5.83-3.4-37.98-65.48-47.85-75.45-35.52,11.09-22.88,48.1-24.6,76.62l-49.44-.03V252.19c9.15,0,49.41-3.19,49.41,8.2,0,45.17,2.08,91.63,0,136.61h0Z"/>
  <path class="cls-1" d="M1642.07,324.46c132.02-7.31,138.14,181.29,14.67,190.2-130.79,9.44-143.34-183.08-14.67-190.2ZM1630.52,368.1c-52.51,15.59-33.89,118.62,25.02,107.31,62.93-12.08,52.24-130.26-25.02-107.31Z"/>
  <path class="cls-1" d="M621.93,514.5c-12.54.86-23.84.3-35.09-6.08-12.81-7.26-13.4-20.51-14.44-21.27-3.82-2.76-43.61,36.75-87.9,24.73-40.61-11.02-59.65-57.93-30.27-90.56,32.03-35.58,102.12-16.23,107.34-21.61.48-.5.5-10.16.24-13.82-2.88-40.98-72.52-23.4-96.02-8.19-27.19-29.62-8.24-38.93,23.17-47.5,29.09-7.94,49.25-9.24,77.91,1.36,63.03,23.32,37.02,72.32,43.79,120.35,2.71,19.24,19.07,37.51,11.27,62.58h0ZM559.89,463.74c47.19-56.94-108.5-47.48-70.12,4.69,15.76,21.42,55.57,12.86,70.12-4.69Z"/>
  <path class="cls-1" d="M858.01,465.37c-53.54,91.92-195.63,49.38-180.67-62.46,10.42-77.92,126.48-106.94,169.8-44.29,12.75,18.44-25.97,29.4-35.94,28.35-7-.74-12.98-15.89-22.96-18.95-83.46-25.62-87.16,130.25,5.53,101.62,8.35-2.58,12-14.19,23.16-15.41,13.07-1.43,27.73,10.51,41.07,11.13h0Z"/>
  <path class="cls-1" d="M1396.06,328.68c40.73.71,45.38-11.77,46.64,32.76,13.99-24.56,34.26-37.09,63.13-38.21,5.77,58.5-2.86,35.62-36.78,53.53-5.12,2.7-23.58,17.36-23.58,20.22v112.02h-49.41v-180.33h0Z"/>
  <path class="cls-1" d="M1593.71,563.66c5.58-5.35,30.5-.73,22.01,16.43,1.52,1.95,22.14-22.73,45.44-15.56,7.59,2.34,12.74,13.64,17.55,14.09,6.85.63,22.99-16.68,38.32-15.13,7.02.71,24.91,16.39,24.91,19.29v79.24c-49.81,13.17-12.77-70.27-36.09-76.33-34.82-9.04-21.06,73.24-24.28,76.36h-27.51c13.94-104.84-44.04-98.82-32.88,0l-27.48-.03c2.65-14.07-3.56-94.95,0-98.36h.01Z"/>
  <path class="cls-1" d="M1564.54,576.33c48.34,43.94-25.54,124.9-72.72,69.62-41.75-48.92,28.24-110.06,72.72-69.62ZM1548.43,592.32c-27.81-27.63-61.37,21.81-34.87,42.88,29.63,23.55,55.18-22.7,34.87-42.88Z"/>
  <path class="cls-1" d="M1472.91,590.91c-11.44,14.34-36.51-6.4-46.34-5.71-23.82,1.66-26.95,43.19-8.58,52.39,17.38,8.7,33.06-15.03,54.93-2.84-34.97,70.98-135.11-8.82-77.2-57.77,36.68-31.01,82.32,7.49,77.19,13.92h0Z"/>
  <rect class="cls-1" x="1346.67" y="634.67" width="21.9" height="27.37"/>
</svg>