<?xml version="1.0" encoding="UTF-8"?>
<svg id="Layer_1" data-name="Layer 1" xmlns="http://www.w3.org/2000/svg" viewBox="0 0 1786.1 571.21">
  <defs>
    <style>
      .cls-1 {
        fill: currentColor;
      }
    </style>
  </defs>
  <path class="cls-1" d="M410.44,96.21c25.12,28.25,5.46,91.83-3.72,124.41-1.73.08-8.08.19-7.97-2.39.23-5.31,4.55-17.02,5.77-23.27,3.62-18.54,9.66-57.35,1.78-74.14-9.03-19.24-35.82-2.75-48.01,4.98-80.6,51.11-154.82,190.69-159.45,285.09-2.68,54.78,22.13,89.64,71.22,44.43,18.86-17.37,34.72-40.48,48.79-61.86l2.86,2.31c-17.1,28.71-36.94,60.63-63.95,80.97-44.98,33.86-79.18,12.78-89.4-38.29-21.51-107.53,63.13-263.91,149.59-326.01,22.12-15.89,68.68-40.03,92.49-16.24h0Z"/>
  <path class="cls-1" d="M253.87,256.64l19.67-33.76,40.75-3.23c48.48-1.48,154.65,6.61,184.29,50.65,24.35,36.18-19.05,56.75-45.31,71.13l-4.07-7.91c22.04-11.81,57.95-34.6,23.89-57.73-38.97-26.47-128.6-27.3-174.73-24.13-14.82,1.02-29.64,4.02-44.48,4.98h-.01Z"/>
  <path class="cls-1" d="M695.65,228.68v-111.35c0-.35-1.77-1.11.5-2.5h54.97c5.61,0,14.97,2.06,20.16,4.82,18.27,9.7,18.7,38.94.35,48.61,24.84,9.52,21.57,47.35-1.35,56.6-2.33.94-12.27,3.82-14.17,3.82h-60.47.01ZM716.64,135.3v23.97l1.5,1.5h33.98c3.99,0,10.43-6.69,11.26-10.71,2.48-12.06-7.06-16.43-17.22-17.29-5.26-.44-21.38-.82-26,.06-1.17.22-3.25,1.48-3.52,2.47ZM752.12,178.75c-10.2-1.44-23.42,1.06-33.98,0l-1.5,1.5v28.96l1.5,1.5h33.98c3.95,0,10.73-4.95,12.21-8.77,4.11-10.59-.47-21.53-12.21-23.19Z"/>
  <path class="cls-1" d="M292.35,267.2c58.07.53,57.09,88.61-.89,88.21-57.15-.39-57.33-88.75.89-88.21Z"/>
  <path class="cls-1" d="M1284.35,147.79h-21.99c1.13-19.99-37.67-22.25-43.71-7.23-4.22,10.52,4.13,14.91,12.7,17.74,21.95,7.25,57.34,5.89,57.04,37.87-.45,48.39-94.05,48.05-92.99-.45h20.49c2.55,5.24,2.75,9.36,7.99,12.99,7.78,5.39,27.05,5.63,35.2,1.2,9.69-5.27,10.15-17.2-.31-22.07-23.24-10.81-64.18-4.5-62.15-42.24,2.51-46.51,87.09-44.39,87.74,2.19h-.01Z"/>
  <path class="cls-1" d="M1159.42,437.4h-20.99v-10.99c-7.35,6.64-10.89,11.82-21.61,12.86-58.98,5.71-49.09-108.93,10.63-84.28l9.98,7.51v-37.45l1.5-1.5h18.99l1.5,1.5v112.35h0ZM1131.08,418.08c11.46-10.59,10.07-43.77-6.93-48.81-30.68-9.09-32.49,49.07-9.98,52.91,5.68.97,12.55-.08,16.91-4.1h0Z"/>
  <polygon class="cls-1" points="775.61 341.53 719.14 341.53 717.64 343.03 717.64 370.49 768.61 370.49 768.61 388.47 719.14 388.47 717.64 389.96 717.64 437.4 694.65 437.4 694.65 325.05 696.15 323.55 774.11 323.55 775.61 325.05 775.61 341.53"/>
  <path class="cls-1" d="M208.89,233.68l-16.64,35.03c-35.1,9.43-133.92,37.32-105.11,89.12,13.05,21.72,45.13,23.4,67.28,26.67,1.74.26,1.68-.53,1.5,1.97-27.22,1.5-65.8-3.82-81.37-29.04-37.22-65.58,86.7-113.14,134.34-123.75Z"/>
  <path class="cls-1" d="M1786.1,191.73h-59.97c-.37,16.17,13.05,25.93,28.54,21.03,6.06-1.92,7.83-8.05,8.44-8.05h21.99c-8.16,34.18-64.67,34.27-76.44,2.97-13.5-35.93,9.25-73.73,50.23-63.18,12.98,3.34,27.2,17.79,27.2,31.74v15.48h.01ZM1727.13,177.75h36.48c2.84-2.28-.58-9-2.5-11.48-10.17-13.09-34.73-6.32-33.98,11.48Z"/>
  <path class="cls-1" d="M1452.77,191.73c-3.79,1.16,1.15,12.16,2.67,14.31,6.26,8.9,21.75,10.48,30.05,3.68,1.05-.86,3.35-5.01,4.26-5.01h20.49c-8.41,35.73-68.95,33.9-77.69-.77-1.66-6.58-1.85-17.9-1.31-24.73,3.7-46.56,71.64-49.47,79.74-4.7.78,4.28,2.09,13.81-.25,17.22h-57.97.01ZM1490.25,177.75c-.91-24.17-37.21-24.46-37.98,0h37.98Z"/>
  <path class="cls-1" d="M1253.37,437.4h-22.49l-2.5-10.98-12.95,9.52c-13.84,7.77-37.51,2.39-39.93-15.1-2.45-17.74,5.95-28.16,22.85-31.92,7.61-1.69,26.91-.55,29.62-9.4,3.49-11.39-20.24-14.76-26.61-7.56-2.17,2.46-1.86,6.29-4.46,8.52h-17.99c-2.53-2.56,1.04-11.17,2.68-14.3,11.38-21.72,63.62-19.52,66.68,5.93,2.02,16.8-1.7,36.98.11,53.82.56,5.21,3.05,7.13,5,11.48h-.01ZM1227.37,395.46c-7.3,4.54-28.57,3.08-30.76,12.69-3.16,13.88,9.09,16.74,20.01,13.01,10.37-3.54,13.54-15.97,10.75-25.7Z"/>
  <path class="cls-1" d="M902.34,143.09c30.4-3.23,50.12,15.87,49.17,46.13-1.01,31.94-27.09,47.12-57.01,40-39.64-9.42-39.83-81.07,7.84-86.14h0ZM903.27,160c-22.7,4.63-23.26,59.7,10.54,53.47,18.56-3.42,19.96-40.3,6.66-50.14-4.83-3.57-11.34-4.53-17.2-3.34h0Z"/>
  <path class="cls-1" d="M859.21,428.06c-10.82,11.44-31.04,13.5-45.68,9.9-42.04-10.33-39.93-90.7,18.59-86.48,38.17,2.75,50.47,51.86,27.1,76.58h0ZM822.31,368.72c-21.86,4.46-23.82,59.3,10.53,53.46,22.57-3.84,22.71-60.24-10.53-53.46Z"/>
  <path class="cls-1" d="M1374.66,361.85c19.29-18.98,58.84-12.21,69.1,13.64,15.71,39.6-14.55,75.01-56.43,61.38-28.81-9.38-32.76-55.25-12.67-75.02h0ZM1418.94,373.83c-11.63-12.45-32.73-3.84-34.64,13.13-2.06,18.34,2.61,40.04,26.05,35.01,17.91-3.84,19.05-36.95,8.59-48.15h0Z"/>
  <path class="cls-1" d="M1581.21,228.68v-56.42c0-.34-1.47-4.34-1.83-5.18-3.44-8.04-14.74-9.35-21.86-5.51-3.21,1.73-9.29,9.29-9.29,12.69v54.43h-20.49l-1.5-1.5v-80.89l1.5-1.5h17.99c3.05,1.56.64,10,1.5,10.98,3.98-1.4,5.75-6.46,9.63-8.84,16.11-9.85,42.05-3.27,45.25,17.41,2.39,15.46,1.86,40.89,1.1,56.89-.11,2.24-.12,5.99-1.52,7.44h-20.49.01Z"/>
  <path class="cls-1" d="M1541.23,437.4h-21.99v-58.42c0-.44-3.72-6.79-4.48-7.51-7.14-6.77-21.77-2.83-25.91,6.12-6.55,14.17-.44,43.75-2.6,59.82h-20.99v-83.89h19.99c.14,1.89-.79,11.01,1.5,10.97,3.6-2.97,5.49-7.05,9.62-9.34,12.09-6.69,34.25-4.41,41.07,8.65,1.06,2.02,3.79,10.39,3.79,12.19v61.42h0Z"/>
  <path class="cls-1" d="M1062.47,437.4h-21.99v-56.42c0-.36-1.74-5.17-2.13-5.86-4.13-7.21-14.69-8.53-21.56-4.83-3.21,1.73-9.29,9.29-9.29,12.69v54.43h-20.99v-81.39c0-.35-1.77-1.11.5-2.5h17.99c3.04,1.54.65,10.02,1.5,10.98,3.26-.04,4.22-3.99,6.45-6.03,13.05-11.95,42.08-8.47,47.23,9.82,4.76,16.9,2.11,46.8,1.37,64.74-.06,1.56.82,2.87.92,4.38h0Z"/>
  <path class="cls-1" d="M1043.47,228.68h-20.99v-55.43c0-5.36-6.03-12.54-11.56-13.41-17.9-2.83-21.56,11-22.47,25.36-.9,14.14.75,29.24.04,43.48h-20.99v-82.39l1.5-1.5h17.99c2.93,1.1.54,11.03,2.01,11,3.43-1.95,5.16-6.13,8.55-8.43,12.66-8.6,37.75-5.3,43.69,10.14.45,1.16,2.22,7.11,2.22,7.77v63.42h.01Z"/>
  <path class="cls-1" d="M908.54,353.51v54.43c0,1.03,2.52,9.21,3.3,10.19,4.97,6.23,18.97,5.52,24.33-.06,1.93-2,5.35-9.57,5.35-12.13v-52.43h20.99v83.89h-19.99c-.32-2.53,1.09-9.83-1.5-10.98-9.2,16.67-40.91,18.17-49.65.68-1.52-3.04-3.81-11.09-3.81-14.17v-59.42h20.99,0Z"/>
  <path class="cls-1" d="M1138.43,144.79l-26.79,41.29,27.79,42.6h-25.49l-14.98-24.94-2.25,1.27-13.75,23.68h-24.49l27.66-42.44-26.66-41.44h24.49l15.01,23.96c1.46.35,1.66-.84,2.24-1.74,4.61-7.08,7.75-15.33,12.74-22.23h24.49-.01Z"/>
  <path class="cls-1" d="M1697.15,173.75h-20.49c-4.11-9.73-8.12-15.57-19.91-13.89-16.49,2.35-17.02,30.04-13.29,42.07,5.38,17.37,31.09,15.91,31.7-3.21h20.99c-2.07,26.75-27.72,36.86-51.63,30.11-25.55-7.21-29.4-42.98-20.83-64.06,13.17-32.41,72.06-29.66,73.45,8.98h.01Z"/>
  <path class="cls-1" d="M1377.31,173.75h-20.99c-2.46-18.85-26.77-18.77-32.04-1.55-3.6,11.76-4.1,38.54,11.79,41.26,13.44,2.3,16.63-3.42,20.75-14.74h18.99c2.27,2.08-.21,7.98-1.33,10.66-8.55,20.51-33.31,25.81-52.83,18.49-24.46-9.17-26.43-52.75-12.74-71.02,17.79-23.75,68.95-17.7,68.4,16.91h0Z"/>
  <path class="cls-1" d="M399.18,303.2c-15.37-16.67-31.68-32.23-48.36-47.55l28.97,1.5c25.97,26.02,54.14,55.04,70.36,88.49,38.93,80.3-23.29,101.28-90.85,78.79-3.14-1.04-21.05-7.51-21.47-9.52-.1-1.27.65-2.38,2.03-2.06,4.3,1,11.83,5.21,17.19,6.83,22.75,6.86,54.6,11.85,77.08,2.59,53.23-21.95-13.34-95.63-34.95-119.07Z"/>
  <path class="cls-1" d="M254.87,165.78l-12.57,16.94c-25.99-12.25-101.31-44.29-119.54-10.63-10.2,20.95,1.66,45.22,13.15,63.11,1.75,2.73,9.43,11.84,9.87,13.13.99,2.86-2.56,3.85-4.81,2.87-4.26-1.86-20.95-27.99-23.57-33.45-18.78-39-2.35-73.37,42.03-75.93,32.86-1.9,66.03,10.98,95.44,23.97h0Z"/>
  <path class="cls-1" d="M1293.35,330.54v22.97c2.6.46,13.26-1.25,13.74,1.45l-.74,13.53h-13v50.43c0,3.36,10.74,2.5,12.99,2.5v16.98h-18.49c-.44,0-5.26-1.44-6.21-1.79-5.89-2.16-8.11-4.71-9.02-10.96-2.48-17,1.42-38.07-.4-55.52-1-3.05-9.15-1.14-11.86-1.63l.44-14.05c1.71-2.46,9.51.83,11.56-2.43v-21.47h20.99Z"/>
  <path class="cls-1" d="M856.57,142.79v20.97c-40.23-3.47-24.88,39.56-27.99,64.91h-20.99v-82.39l1.5-1.5h18.49l-.02,12.4,2.52.6c4.93-10.44,14.8-16.06,26.48-15h.01Z"/>
  <polygon class="cls-1" points="1344.32 437.4 1322.34 437.4 1322.34 355.01 1323.83 353.51 1342.83 353.51 1344.32 355.01 1344.32 437.4"/>
  <path class="cls-1" d="M1415.29,144.79v83.89h-20.49c-.97-.63-1.5-3.59-1.5-4.49v-77.9l1.5-1.5h20.49Z"/>
  <path class="cls-1" d="M431.78,350.51c-58.06,20.11-118.58,33.33-179.91,38.95l1.66-2.82c59.14-6.18,117.83-21.18,172.99-42.97,2.59-1.25,6.19,5.76,5.25,6.84h.01Z"/>
  <path class="cls-1" d="M330.83,215.7h-31.48c-.82,0-11.44-8.45-13.42-9.59l11.56-15.27c2.06-.34,30.58,20.83,33.34,24.86Z"/>
  <path class="cls-1" d="M351.81,10.97c-8.29-3.47-7.47,5.7-8.85,11.42.42,1.73,15.67,6.06,17.39,3.6.29-.41,2.24-9.14,2.24-9.73,0-4.14-6.25-1.62-4.77-6.28l16.98,4.01c.97,4.17-5.89.46-7.04,2.62l-5.83,28.21,4.88,1.12-1.48,2.88-15.52-3.89v-2.99l5.91.91,3.07-13.88-16.86-2.91-2.12,13.88,3.31-.02.69,3.01-16.98-4.01c-.71-4.4,5.26.4,7.08-2.64,1-1.67,3.63-13.55,4.24-16.5.76-3.68,1.82-7.34,1.73-11.15l-5.05-3.65c4.4.62,10.29,1.65,14.43,3.05,1.64.55,2.91.73,2.55,2.94h0Z"/>
  <path class="cls-1" d="M122.93,52.92c.56,2.46-3.07,3.16-2.85,5.32.26,2.59,17.1,22.84,19.14,22.49.27-.05,6.54-4.01,4.7-.36-.44.88-12.77,10.59-13.98,9.49l2.88-6.28-8.36-9.68-12.38,11.29c.07.75,6.35,8.86,6.85,9.18,3.18,2,6.06-2.58,6.99-1.51-.1.8.21,1.87.03,2.49-.24.81-13.41,10.08-14.01,9.48-.66-2.46,3.65-4.05,3.75-5.47s-16.32-21.37-17.78-22.02c-3.38-1.52-4.4,3.6-6.95.04l13.48-10.46c3.54,2.27-2.86,3.87-2.42,6.32l7.02,9.55c1.85,1.28,12.4-9.14,14.83-10.39l-7.67-9.57-2.36-.47-3.42,2.52c-1.25.4-1.99-.23-1.47-1.47.42-1.02,6.61-5.8,8.09-6.9.98-.73,5.14-4.35,5.89-3.59h0Z"/>
  <path class="cls-1" d="M230.88,5.98c.92,3.19-4.88,3.41-5.07,4.6l8.69,28.29,5.37.54-15.5,5.39-1.47-2.87,5.07-1.66-3.13-13.29c-2.93.75-16.21,3.07-16.77,5.55.97,2.66,1.8,11.52,4.5,12.29l5.33.58-16.97,5.51.68-3c2.34-.13,4.7-1.56,4.15-4.23-2.88-5.73-3.61-19.34-6.92-24.14-1.59-2.31-3.04-1.61-5.45-.92l-1.46-2.66,16.98-4c.63,4.08-.65,2.74-3.84,3.11-1.49.94.56,11.79,1.32,12.9,1.78,2.6,14.87-2.44,17.61-3.66l-3.55-11.38c-.87-2.21-6.63.98-6.5-1.47.09-1.76,14.46-4.37,16.97-5.49h-.04Z"/>
  <path class="cls-1" d="M46.97,361.5c-3.23.72-1.98-3.3-3.98-4.54-2.4-1.49-10.01,1.92-12.58,3.53l4.07,15c1.4,1.87,11.45-1.65,12.51-2.5,2.19-1.77.17-4.33,0-6.5h2.99c-1.27,3.89,5.08,13.27,4.98,15.48-.18,3.7-4.56-1.68-4.12-3.35-2.08-1.32-27.17,6.79-28.41,8.83-1.15,1.89,2.05,5.04-1.41,5.99l-5-16.97c3.69-.51,1.73,4.85,5.43,4.96,2.21-1.17,11.59-2.39,11.41-5.27l-5.48-14.61c-5.77,1.02-15.36,1.46-11.35,9.4-.26,1.06-1.36.65-2.03.03-1.45-1.33-4.77-13.68-4.98-16.49,3.42-.63,1.32,4.02,4.69,4.85,1.25.31,8.06-2.03,10.07-2.6,5.49-1.55,10.95-3.65,16.25-5.73l1.46-6.51c2.85,5.02,5.2,11.18,5.51,16.96l-.03.04Z"/>
  <path class="cls-1" d="M25.03,239.62l11.32,1.97c2.11-.72,1.32-5.55,4.63-4.92l-3,16.97c-3.54.71-1.02-3.11-2.9-5.59-.98-1.31-3.37-1.65-4.88-2.11-2.53-.77-20.12-4.45-21.71-4.32-3.39.26-1.81,4.15-3.48,5.54l-2-1.03c2.78-6.05,2.67-25.92,10.52-27.42,8.23-1.57,9.78,1.57,13,7.97,5.26-4.37,9.77-.8,15.36-3.1l-.32-3.98-5.59-1.4c-2.48-4.14,6.17-.96,7.57.42,3.56,3.49.43,11.17-4.08,12.02-7.58,1.42-15.78-4.12-14.42,8.97h-.02ZM8.14,235.53l13.22,3.06c9.7-15.16-15.29-21.9-13.22-3.06Z"/>
  <path class="cls-1" d="M538.94,320.34c1.02.8,23.44,5.31,25.33,5.26,1.24-.04,2.05-.14,3.05-.94,1.87-1.48.23-4.8,3.39-4.09l-1.97,11.51-26.01,11.97c-.44,2.24.95,1.28,2.33,1.62,3.23.81,15.55,3.66,17.66,2.37s.82-5.36,3.98-4.51l-3.51,14.96-1.7-6.78-30.77-5.2,1-4.49,29.99-12.49c.29-2.38.04-1.59-1.38-2.1-2.23-.8-18.1-4.04-20.12-3.96-4.83.18-2.33,3.43-4.98,6.06-2.15-1.41-1.22-2.18-1.05-4.01.35-3.78,1.99-8.12,2.57-11.94,3.36.79.51,5.44,2.2,6.77h0Z"/>
  <path class="cls-1" d="M48.97,129.82l-1.86,4.66c-.17,1.14.6,1.7,1.32,2.36,3.24,2.94,26.41,13.91,26.5,15.44-.89,2.97-3.69,3.07-6.59,3.38-9.34.97-19.01,1.01-28.36,2.13-.58,2.3.43,1.64,1.26,2.28,1.6,1.25,17.4,10.41,18.45,10.57,3.86.58,2.66-3.98,6.27-3.87-.7,4.82-4.4,10.16-7.49,13.96l.49-5.49c.04-.85-.42-1.41-.9-2.04-1.05-1.38-22.21-13.21-23.77-13.23-2.74-.04-3.66,5.86-5.3,3.8-.97-1.21,4.31-10.4,5.65-10.83l28.34-2.16c-.11-1.17.53-2.15-.62-3.07-.63-.5-13.52-7.24-14.35-7.47-6.44-1.79-4.42,5.33-7.99,2.05,1.12-.76,7.03-14.56,8.97-12.49l-.02.02Z"/>
  <path class="cls-1" d="M545.43,403.14c1.06-.94,1.39-4.28,4.29-2.2l-15,29.47-10.96-6.49c2.12-2.46,4.13.81,7.48.59,3.8-.24,8.1-7.73,9.05-11.05,1.88-6.61-6.39-6.46-10.06-9.99l-3.52,7.43c-.05,2.66,5.16,3.97,3.52,6.54l-13.48-7.51,7.57-1.42,2.3-6.94-12.68-3.94c-2.26,4.79-7.15,10.96-4.07,16.2,1.58,2.68,5.71,2.64,4.87,6.6l-11.99-6.01,15.49-29.92c3.14,3.03-1.82,4.9,2.54,8.44,1.77,1.43,18.93,10.08,21.26,10.77,1.47.43,2.16.52,3.39-.56h0Z"/>
  <path class="cls-1" d="M35.97,288.59c-4.9.17-.2-4.6-3.7-5.78-9.19-1.12-20.19-3.08-29.14-1.07l-.14,4.86H0c2.4-6.96-1.58-27.96,8.46-29.04,4.98-.53,7.55.83,10.02,5.04.83.03,3.03-6.92,10.52-5.57,13,2.35,5.45,22.6,6.96,31.55h0ZM16.88,275.5c5.49-15.62-16.34-17.36-13.74-1.02l13.74,1.02ZM33.84,276.47c6.24-18.42-18.82-17.9-13.91-.29l13.91.29Z"/>
  <path class="cls-1" d="M572.71,310.57l-11.99-1c-.26-3.89,6.86-1.82,8.33-5.21.97-2.24,1.35-14.22-.28-15.32l-11.91-1.3c-1.79,2.24-.84,7.99,1.12,9.58,1.33,1.08,6.42.35,4.22,3.28l-15.48-1.02c1.06-2.83,5.02-1.26,6.48-4,.61-1.15,1.91-6.69.56-7.51-3.06-.55-11.23-1.49-13.14.94-1.36,4.01-2.41,15.16,2.12,17.05,2.64,1.1,7.15-.65,6.97,3.51l-12.98-1,1-32.94c3.7-.76.78,3.27,2.97,5.52,3.04,3.13,23.1.8,28.37,1.33,3.38-1.12-.39-6.7,3.64-5.85v33.95h0Z"/>
  <path class="cls-1" d="M36.97,307.57c.72,8.76,2.03,17.49,3.28,26.19.22,1.5,1.71,5.01,1.69,5.29-.3,5.01-3.98-3.02-4.21-3.25-3.11-3.12-22.73,3.22-28.01,2.74-3.08,1.19.93,7.51-3.73,6.98l-3.95-32.9,11.93-2.04c.09,4.01-6.02,2.9-7.49,5.98-1.85,3.87.19,11.66.55,15.93l13.97-1.49c-.2-5.39-1.89-9.52-8.03-8.45-.55-2.35.9-2.28,2.75-2.7,3.64-.84,8.46-1.07,12.24-1.28l-5.58,5.96c-4.27,8.85,11.77,5.98,13.68,3.62,2.9-3.59-.76-15.59-6.07-17.18-1.77-.53-7.1,1.18-7-.9s11.74-1.66,13.97-2.5h.01Z"/>
  <path class="cls-1" d="M183.9,32.93c-3.53.85-3.53-2.28-5.63-3.85-6.83-5.1-17.32.46-17.1,9.07.14,5.35,6.56,18.09,11.48,20.51,9.84,4.85,19.39-7.88,11.26-16.31-2.25-1.42-6.7,2.88-5.99-1.42l14.99-5-2.84,4.3,5.84,13.66c-4.28.93-2.9-4.14-6.99-3-1.8,12.79-20.34,16.09-27.82,5.33-11.39-16.36-3.16-32.67,16.83-31.28v-4c2.08-2.45,6.54,11.44,5.99,11.97l-.02.02Z"/>
  <path class="cls-1" d="M77.05,118.73c5.43-.69,11.1,1.87,16.34,1.04,3.67-.59,4.32-3.48,7.55-3.93,1.61,1.76-8.74,13-10.5,14.97l-1.45-5.5c-1.95-.52-11.75-2.98-11.98,0l4.94,10.08,5-1.57c1.33,1.46-5.6,8.85-6.99,10.53s-.85,4.38-3.98.95c5.88-5.89.5-14.52-1.15-21.34-5.49.3-10.87-1.81-16.38-1.15-3.62.43-4.39,2.37-7.46,3.01-.81-.82,9.57-14.87,10.49-14.96,2.57-.23-.52,5.9,1.46,6.51,13.61,3.48,14.18.54,7.56-10.62l-5.52,1.09c-1.12-1.12,7.75-11.92,8.49-11.96,2.04-.1.81,1.88.65,2.59-1.91,8.59,1.04,12.11,2.94,20.26h-.01Z"/>
  <path class="cls-1" d="M217.66,526.51l10.24,27.73c1.49-.19,2.34-3.54,2.7-4.77.6-2.03,3.68-15.42,3.21-16.1-1.04-.86-5.73-.25-4.91-2.57.9-2.53,2.38-.5,3.26-.3,3.92.87,7.84,1.82,11.72,2.8-1.24,3.74-4.64-.41-6.5,1.97-2.66,3.4-6.64,29.77-8.99,29.95l-2.83-2.23-11.17-29.69-6.42,21.51c.23,4.38,6.32,1.71,4.92,6.43l-13.97-4.51,5.49-1.43,7.34-26.42-4.84-4.58,10.76,2.22h0Z"/>
  <path class="cls-1" d="M492.49,99.09c9.22-1.5,19.16,5.45,21.02,14.46,3.39,16.4-26.58,33.31-36.26,11.27-4.78-10.89,4.45-23.98,15.24-25.73ZM497.49,103.06c-5.11,1.01-16.92,10.6-18.28,15.75-1.7,6.44,5.55,14.05,11.79,12.82,4.46-.88,16.91-10.44,18.29-14.74,2.42-7.51-3.96-15.39-11.81-13.83h.01Z"/>
  <path class="cls-1" d="M387.53,21.19c7.79-1.64,19.87,3.82,21.2,12.31,2.78,17.78-14.85,33.39-30.39,20.39-10.56-8.84-3.05-30.12,9.19-32.7h0ZM390.51,24.16c-8.65,1.96-19.88,29.14-4.15,31.69,9.8,1.59,16.76-12.23,17.37-20.56s-5.54-12.88-13.22-11.14h0Z"/>
  <path class="cls-1" d="M313.84,535.27v11.98c-2.98.51-1.6-.77-2.12-2.33-1.22-3.67-.6-5.83-5.45-6.59-12.19-1.9-16.08,1.08-12.5,13.48,1.97,1.39,6.8-.13,8.14-1.99,1.53-2.13-.27-5.28,2.92-4.56l1,14.97c-3.27.63-2.18-4.13-4.99-5.49-1.69-.81-5.46-.95-7.06-.03-2.11,14.62,3.69,16.14,16.36,11.58l4.68-9.05-.46,12.04-31.51,1.93c-1.13-3.43,4.61-2.01,5.05-3.61-.65-4.17,1.13-26.78-1.21-28.2-1.22-.74-4.52.77-5.83-1.64,1.2-1.82,2.64-1.41,4.43-1.54,9.19-.68,19.27-.51,28.54-.96h0Z"/>
  <path class="cls-1" d="M422.51,40.16c21.06-4.34,30.65,18.85,14.61,32.57-12.3,10.53-30.76-.22-28.09-16.09.97-5.77,7.43-15.23,13.48-16.48ZM429.52,42.1c-9.59,1.38-26.12,28.02-7.99,31.58,9.29,1.82,20.57-15.45,19.22-23.19-.69-3.96-7.58-8.91-11.22-8.38h-.01Z"/>
  <path class="cls-1" d="M28.71,174.98c9.3-1.93,24,3.86,25.28,14.22,2.44,19.66-16.51,27.44-30.93,15.93-10.27-8.2-6.58-27.62,5.65-30.15h0ZM49.62,188.09c-4.89-5.4-21.98-11.78-27.66-4.88-10.68,12.98,11.81,23.11,22.46,21.44,7.04-1.11,10-11.27,5.2-16.56Z"/>
  <path class="cls-1" d="M242.88,568.22c-.81-3.56,2.97-1.12,5.03-2.45,3.07-1.98,2.59-22.41,3.72-26.79-.4-4.24-3.74-1.89-5.27-3.71l1.03-2c17.27,3.36,35.11-1.3,31.4,23.4-2.76,18.42-23.23,11.1-35.91,11.54h0ZM268.58,565.94c5.39-4.39,7.33-25.46-1.66-28.22-9.84-3.02-10.21.97-11.04,9.05-.3,2.91-1.43,17.14-.87,18.83.9,2.68,11.32,2.17,13.57.34h0Z"/>
  <path class="cls-1" d="M322.84,568.22c1.84-3.19,5.97-1.43,5.8-6.19-.1-2.89-3.47-20.05-4.57-22.49-2.3-5.12-4.21-.98-7.21-3.77l19.48-4.47c10.77-1.72,17.03,4.2,18.39,14.54,2.73,20.7-16.85,20.47-31.9,22.38h0ZM332.55,533.5c-1.81.43-3.52,1.24-3.74,3.26-.16,1.4,4.69,25.41,5.5,26.49,1.5,2.02,8.28.27,10.25-.78,7.46-3.99,4.85-17.02,1.77-23.21s-7.32-7.29-13.78-5.76Z"/>
  <path class="cls-1" d="M1415.29,114.83v19.97h-20.99c.32-.98-1-2.17-1-2.5v-15.98l1.5-1.5h20.49Z"/>
  <polygon class="cls-1" points="1323.83 323.55 1342.83 323.55 1344.32 325.05 1344.32 342.03 1342.83 343.53 1323.83 343.53 1322.34 342.03 1322.34 325.05 1323.83 323.55"/>
  <path class="cls-1" d="M143.72,494.54c4.35-.43,9.24,1.24,12.69,3.79,17.16,12.67-4.35,43.93-23.5,28.47-12.38-9.99-2.4-30.96,10.81-32.26ZM145.68,497.55c-9.04,2.36-23.46,28.49-5.16,30.7,8.73,1.06,19.87-16.59,17.66-23.64-1.52-4.83-7.57-8.35-12.5-7.07h0Z"/>
  <path class="cls-1" d="M538.59,152.63c-.78-.17-11.27,7.8-10.84,3.65.1-.99,5.81-2.1,5.45-7.63-.17-2.7-5.3-11.97-7.8-11.71-5.1,2.3-15.4,8.11-5.37,12.12,3.57,1.43,5.77-3.13,6.21.73l-13.5,7.98c.53-3.42,3.36-3.31,3.1-7.48-.65-10.33-9.45-1.93-13.64,1.52l-.29,2.21c.2.98,4.13,4.86.35,4.75l-9.51-15.45c3.19-3.54,1.93,3.45,7.27,2.32,2.09-.44,22.23-13.1,22.57-14.51.46-1.84-1.85-4.61-.36-6.3l15.74,24.22.62,3.58h0Z"/>
  <path class="cls-1" d="M560.72,199.74c.9,1.17-10.07,4.78-10.99,3.97.3-3.35,3.98-4.22,4.78-7.69,1.65-7.16-3.71-17.68-11.2-12.39-2.11,1.5.69,15.13.48,18.62-.84,13.57-20.67,12.86-22.99-2.09-.46-2.96.61-7.58,0-9.81-.32-1.19-3.91-.42-4.06-2.6l11.99-3c-.33,3.23-4.32,3.78-5.44,7.03-2.2,6.4,2.41,20.44,10.16,17.19,9.1-3.82-4.37-24.87,8.23-28.77,8.42-2.61,13.76,2.73,15.61,10.47.87,3.62-1.09,8.73,3.44,9.07h-.01Z"/>
  <path class="cls-1" d="M182.83,513.39l.07,2.9c-.33.38-2.93-1.19-4.3-.87-2.21.52-8.66,15.9-9.24,18.79-1.16,5.73-.91,8.21,4.23,10.84,14.01,7.16,16.01-12.59,21.15-21.45.33-3.4-6.93-2.62-2.34-6.28l10.82,4.96.66,3.01c-7.91-4.19-10.21,12-13.79,17.67-5.29,8.38-15.41,8.33-22.52,2.15-10.83-9.41,3.07-22.58,4.33-31.43.51-3.55-2.88-2.34-3.99-5.36l14.91,5.07h.01Z"/>
  <path class="cls-1" d="M284.85,10.96c-1.3,1.41-6.38-7.1-8.7-7.78-12.37-3.62-20.28,8.43-7.35,11.34,6.6,1.48,15.88-.46,17.84,8.14,2.56,11.21-6,16.5-16.19,15.18-2.31-.3-7.29-3.06-8.05-2.9-1.49.32-.7,3.97-3.53,2.99v-11.97c2.39-.55,1.62.41,2.23,1.3,1.6,2.34,2.59,4.96,5.26,6.69,7.67,4.96,21.93-.4,16.56-8.57-4.32-6.57-23.66.38-24.1-13.95-.21-7.02,5.39-10.73,11.82-11.24,4.82-.38,9.24,4.02,12.71-.19,2.43,1.46.24,3.11.38,5.47.11,1.94.9,3.61,1.11,5.49h.01Z"/>
  <path class="cls-1" d="M121.59,489.91c.2-.12,2.78-4.44,3.33-.1l-9.5,10.49c-3.68.11.45-2.92.57-4.54.2-2.78-2.73-4.7-4.69-6.36-1.62-.29-7.6,7.06-8.16,8.65-1.35,3.83,6.66,6.43,2.29,7.25-.84.16-13.26-9.66-13.5-10.48-.18-.63.13-1.69.03-2.49l4.55,2.04c1.27.27,2.02-.43,2.99-1,1.66-.97,16.59-19.09,16.37-20.38l-2.94-3.13.51-2.48,23.45,19.56-7.46,9.36c-2.79-1.79.74-3.2,1.3-5.69,1.55-6.96-4.95-9.09-9.28-13-1.76-.15-8.58,7.89-8.57,9.24.01,3.26,5.41,5,8.72,3.07h-.01Z"/>
  <path class="cls-1" d="M323.62,4.7l.71-1.74,2.27,1.49-1.77,10.53h-2.99c.46-12.69-16.51-17.14-20.79-4.29-2.51,7.55-3.66,24.49,7.23,25.32,8.46.64,12.03-3.06,13.56-11.05,4.37-3.25,2.71,11.45-6.57,12.92-16.59,2.63-24.56-5.76-22.17-22.15,1.62-11.1,9.94-16.38,20.79-14.3,3.06.59,7.93,4.33,9.72,3.27h.01Z"/>
  <path class="cls-1" d="M541.73,390.45v-2.97c11.48,2.4,20.64-10.93,10.49-18.98-8.68-6.88-29.68-11.08-28.55,5.48.42,6.12,3.53,6.28,6.84,9.2,3.76,3.32.28,4.33-3.72,1.75-10.02-6.45-4.13-25.96,5.65-28.2,8.21-1.87,23.67,2.65,25.85,11.7,1.19,4.93.72,11.73-2.11,16-1.99,3.01-7.23,4.49-2.47,8.54l-2.02,1.07-9.95-3.59h-.01Z"/>
  <path class="cls-1" d="M48.97,421.43c2.17,1.86-8.82,6.27-9.68,6.86l-1.33-.3-13.98-28.53c3.16-.69,5.86-2.57,8.88-3.63.75-.26,2.66-2.45,3.11.14.47,2.74-6.18,2.81-6.83,7.2-.28,1.92,2.03,7.34,4.15,7.14,3.85-2.77,23.64-10.26,24.55-13.57.66-2.41-2.15-4.57.62-6.26l8.47,15.47c-3.08,3.14-3.07-3.2-8.22-2.35-1.9.31-23.36,11.12-23.66,12.42,2.76,9.91,6,6.94,13.91,5.4h.01Z"/>
  <path class="cls-1" d="M566.85,239.49l3.86,3.16-12.99,2c-.72-5.05,6.11-4.63,7.55-8.92,7.43-22.15-29.97-16.27-32.35-5.33-1.96,9,6.12,15.9,14.81,14.26v2.99c-18.64,3.62-23.76-24.5-7.7-31.15,18.42-7.63,31.7,3.86,26.82,22.99h0Z"/>
  <path class="cls-1" d="M469.76,68.89c-3.42-.2-3.91-3.19-7.53-1.06-1.47.86-16.09,19.24-16.33,20.76-.64,4.11,8.9,8.37,13.17,7.07,2.27-.69,3.29-4.74,6.7-3.79l-8.48,10.88-22.49-18.39c.28-4.27,5.14,2.12,7,.06,3.95-6.26,10.33-11.58,14.38-17.62.81-1.21,2.6-3.06,2.61-4.42.02-2.31-3.46-2.92-3.01-5.47l12,8.47,1.98,3.51h0Z"/>
  <path class="cls-1" d="M459.76,487.34c13.81-2.34,18.34,11.94,7.49,19.96-9.54,7.06-19.03,1.42-15.48-9.97-11.32-.69-15.21-13.31-5.5-19.98,8.43-5.79,15.31.69,13.49,9.99ZM449.51,477.52c-8.61,1.77-10.2,16.88,3.29,13.33,9-2.37,5.56-15.15-3.29-13.33ZM454.03,496.57c-3.16,3.28-.07,11.16,4.3,11.76,6.12.85,16.12-8.82,11.53-14.61-2.48-3.48-13.89.83-15.83,2.84h0Z"/>
  <path class="cls-1" d="M429.86,524.4l1.6,2.94c18.97.3,13.38-25.37-2.67-15.04-1.34-1.42,5.03-5.14,4.76-8.32-.48-5.69-7.16-10.6-12.71-6.1-4.67,3.79-4.48,8.17,2.95,6.43l-.45,4.04c-2.94,4.36-10.49-2.97-4.57-10.55,7.85-10.04,22.86-3.81,16.03,8.01,1.55,2.4,3.36.42,5.99.88,14.31,2.49,5.01,24.34-9.48,21.56-2.48-.48-5.94-4.18-4.81-6.68,2.66-5.89,10.69.58,3.37,2.82h-.01Z"/>
  <path class="cls-1" d="M412.79,541.25c6.61-5.99,3.03-10.91.98-17.96-3.03-.41-1.98,2.82-4.62,4.86-17.7,13.65-26.31-20.8-5.87-20.86,12.12-.03,24.87,28.66,9.5,33.96h.01ZM409.49,525.99c4.84-6-3.47-21.06-11.67-15.16-8.49,6.11,4.43,24.13,11.67,15.16Z"/>
  <path class="cls-1" d="M65.98,433.41c1.83-.15.54,2.27,1.97,3.51,1.65,1.44,8.34,2.62,10.01,5.98l-11.99-1.5c-.86,6.71,6.46,7.94,11.48,9l1.5-4,.18,4.83c3.61,1.56,7.4,2.26,9.82,5.66l-9.41-1.38c-5.44,5.42,4.42,8.64,8.85,9.82l2.55-3.95.14,4.86c3.84,1.17,7.9,2.2,9.86,6.11-2.71-.22-4.66-1.82-7.53-2.04-1.84-.14-5.06.97-5.31.88-.11-.04-.19-1.46-.85-1.81-3.88-2.02-8.04-3.36-9.81-7.98-.69-1.81-.44-5.05-1.38-6.39-.64-.92-7.58-2.52-9.97-7.24-1.42-2.83-.68-6.21-1.29-7.21-.17-.27-4.43-1.71-5.77-2.72-1.21-.91-7.77-6.47-3.58-6.41l9.02,4.97,1.5-2.97v-.02Z"/>
  <path class="cls-1" d="M145.92,38.94c.19,3.23-4.25,2.49-3.5,6.07.34,1.64,13.28,22.82,14.5,23.46,2.4,1.25,4.81-3.61,6.97-.07l-14.47,9.47c-4.6-3.65,2.7-2.91,2.36-6.3-.16-1.64-13.34-22.5-14.9-23.18-2.16-.95-3.83.75-5.95.54-.41-1.82.55-1.96,1.67-2.82,1.4-1.09,12.53-7.89,13.32-7.16h0Z"/>
  <path class="cls-1" d="M570.71,250.66c-.6,4.92.64,9.56,1.14,14.36.17,1.64,1.61,2.14-.64,3.59l-2.63-5.84-27.16,2.06c-4.59,1.3-.63,7.34-4.69,6.79l-1-17.97c3.8-.48.6,4.65,4.71,5.83,5.64-.04,20.62-1.03,26.27-2.33,3.63-1.75.04-7.18,3.99-6.49h.01Z"/>
  <path class="cls-1" d="M378.8,518.3l10.48,28.98c2.18,2.29,4.91-.23,7.52-.02l-16.5,7.97c-1.44-3.29,4.38-3.05,4.32-6.29-.04-2.01-7.3-20.26-8.43-20.62l-6.37.44c8.2-1.29,3.61-9.01,8.98-10.48v.02Z"/>
  <path class="cls-1" d="M354.82,334.53l23.47-48.92c1.76,1.25,1.67,2.31,1.33,4.26-.46,2.62-7.23,15.41-8.96,19.06-3.84,8.07-8.37,15.8-11.96,24l-3.88,1.61h0Z"/>
  <path class="cls-1" d="M507,441.22c.28.32,1.22.21,1.74.19v.97c-3.08-.47-1.75,3.4-2.65,5.84-3.39,9.11-9.83,7.6-11.22,9.26-.45.55-.41,12.02-6.11,11.87l2-11.98-5-.98c7.24.5,5.81-7.04,8-11.99l1.44,10.03c7.01,3.98,6.49-5.77,7.49-10.42l-3.93-2.6,3.95-.05,3.05-11.93,1.24,11.8h0Z"/>
  <path class="cls-1" d="M483.75,459.38c-.89,4.23-3.01,9.67,2,11.47-5.3,2.08-1.56,11.63-8.99,13.48.24-2.98,3.37-9.27,1.71-11.76-.34-.51-2.74.2-1.7-2.2.82-.11,2.02-.29,2.48-.99s1.98-13.01,4.51-10.01h-.01Z"/>
  <path class="cls-1" d="M171.42,278.62c5.04-1.24,13.99,11.24,8.98,10.96-1.92-3.24-7.78-5.92-9.51-8.45-.88-1.28-1-2.13.53-2.51Z"/>
  <path class="cls-1" d="M405.72,535.35c1.3,4.93-4.43,3.29.07,7.9-7.02.08-8.55-10.64-.07-7.9Z"/>
  <path class="cls-1" d="M392.8,257.65l-2.5,5.96-3.5-5.46c1.67-2.59,3.7-.38,6-.51h0Z"/>
</svg>