<?xml version="1.0" encoding="UTF-8"?>
<svg id="Layer_2" data-name="Layer 2" xmlns="http://www.w3.org/2000/svg" viewBox="0 0 318.76 214.15">
  <defs>
    <style>
      .cls-1 {
        fill: currentColor;
      }
    </style>
  </defs>
  <path class="cls-1" d="M99.59,117.35c-12.16-1.25-23.74-2.12-35.22-3.73-8.51-1.19-16.65-3.98-23.79-9.01-4.83-3.4-8.44-7.69-9.05-13.87-.51-5.08,1.23-9.56,3.92-13.73,4.96-7.71,11.92-13.36,19.36-18.48,2.4-1.65,4.88-3.2,6.95-4.55-5.56-4.52-11.17-8.93-16.58-13.55-1.99-1.7-3.62-3.85-5.24-5.93-1.89-2.44-.92-4.48,2.17-4.79.84-.08,1.69-.03,2.54-.03h58.61c1.65-5.36,1.66-5.58,7.22-5.29,5.94.31,11.33-.99,16.83-3.26,25.43-10.52,51.98-16.79,79.33-19.67,17.94-1.89,35.87-2.24,53.74.75,8.47,1.42,16.74,3.58,24.21,8.02,12.88,7.65,15.49,18.97,6.37,30.85-4.12,5.37-9.36,10.05-14.69,14.28-9.52,7.57-20.43,12.88-31.75,17.8,5.77-4.25,11.48-8.18,16.87-12.5,5.31-4.26,9.79-9.35,12.55-15.7,3.33-7.7,1.92-14.74-4.15-20.52-5.85-5.57-13.19-8.24-20.79-10.28-13.08-3.51-26.47-4.39-39.92-4.15-27.11.48-53.57,5.09-79.48,12.98-.78.24-1.54.54-2.3,1.33h2.59c41.78,0,83.56.04,125.33-.05,3.63,0,6.01,1.41,7.85,4.31,1.8,2.85,1.22,5.41-1.95,6.62-6.9,2.62-13.89,5-20.84,7.5-7.64,2.76-15.41,5.22-22.87,8.4-10.08,4.31-17.16,11.55-19.06,22.77-1.07,6.32-.72,12.59,2.33,18.88,6.02-2.11,11.91-4.17,17.8-6.24.07.18.15.36.22.55-5.5,2.6-11.01,5.2-17.32,8.19,2.36,1.86,4.24,3.81,6.51,5.03,3.99,2.15,8.18,3.93,12.35,5.71,2.56,1.09,3.78,2.79,3.73,5.6-.09,4.33,0,8.66-.04,13-.04,3.35-1.06,4.43-4.31,4.44-38.6.02-77.21,0-115.81.03-2.91,0-4.32-1.17-4.21-4.16.1-2.72.02-5.45.02-7.57l-.03.02h0ZM51.35,79.74c1.2,2.97,1.78,6.47,3.76,8.79,2.88,3.37,6.44,6.42,10.28,8.64,8.05,4.66,17.23,5.94,26.22,7.88,8.01,1.73,14.31-.24,20.62-5.22,7.57-5.98,12.27-13.2,13.32-22.77.46-4.17-.53-6.16-4.52-7.58-4.26-1.52-8.61-2.89-13.02-3.9-11.3-2.6-22.66-4.96-33.99-7.43-2.76-.6-5.9-2.44-8.15-1.66-2.59.89-4.57,3.92-6.49,6.28s-3.75,4.89-5.04,7.62c-1.32,2.8-1.93,5.94-2.99,9.37,0,0,0-.02,0-.02ZM191.34,28.17h-55.85c-2.86,0-5.72-.09-8.57.03-3.68.16-5.92,4.31-3.96,7.43.46.73,1.72,1.36,2.57,1.31.82-.04,2.14-.91,2.29-1.61.57-2.71,2.38-2.76,4.53-2.76,40.51.03,81.02.03,121.54.04.74,0,1.66.24,2.18-.1.85-.57,1.82-1.45,2-2.35.1-.5-1.19-1.51-2.03-1.9-.7-.32-1.66-.09-2.51-.09h-62.2,0ZM74.85,33.28v-.04c-8.14,0-16.27,0-24.41.02-.92,0-1.98,0-2.73.42-.58.33-1.24,1.74-1.04,1.99,1.52,1.82,3.17,3.56,4.97,5.1.29.25,2.1-.47,2.2-.94.49-2.44,2.27-2.16,3.93-2.16,11.73,0,23.46.11,35.19.04,2.73-.02,4.83.37,6.31,3.05,1.1,2,3.27,1.84,4.28.05,1.98-3.53-.26-7.51-4.27-7.52-8.14-.02-16.27,0-24.41,0h-.02ZM104.75,116.52v2.47c0,.32-.12.71.02.94.68,1.11,1.44,2.18,2.16,3.26.74-1.11,2.18-2.28,2.08-3.31-.44-4.9,1.66-8.08,5.87-10.19.37-.19.71-.45,1.05-.7,11.66-8.41,18.93-19.34,19.41-34.09.05-1.44.27-2.98-2.1-3.03-2.39-.05-2.52,1.29-2.46,3.03.26,6.69-1.95,12.62-5.66,18.07-4.16,6.11-9.49,11.06-15.66,15.01-3.5,2.24-5.45,4.89-4.72,8.55h.01ZM113.89,37.43c1.73-.84,4.3-1.24,5.01-2.61,2.01-3.88-.09-6.64-4.49-6.64-.73,0-1.48.06-2.2-.01-2.99-.29-4.18,1.05-4.13,4.02.08,4.2.38,4.55,5.81,5.25h0Z"/>
  <path class="cls-1" d="M198.71,156.02c0,8.59.05,16.25-.05,23.9-.02,1.27-.32,2.87-1.13,3.71-.67.7-2.49,1.01-3.4.6-1.02-.46-2.25-1.91-2.26-2.94-.16-11.61-.16-23.22,0-34.83,0-1.06,1.35-2.91,2.16-2.96,1.42-.09,3.42.51,4.29,1.56,4.13,4.93,7.95,10.12,11.89,15.21,2.7,3.49,5.41,6.97,8.77,10.35v-8.63c0-4.86.06-9.71-.02-14.56-.04-2.5.82-4.26,3.47-4.28,2.65,0,3.53,1.73,3.52,4.24-.05,10.77-.03,21.53,0,32.3,0,1.94.15,4.4-2.21,4.55-1.61.11-3.85-1.04-4.93-2.35-5.27-6.45-10.25-13.15-15.33-19.75-1.39-1.8-2.79-3.58-4.76-6.1v-.02h-.01Z"/>
  <path class="cls-1" d="M77.7,185.24c-3.7-.92-7.48-1.78-11.21-2.84-1.07-.3-2.48-.95-2.85-1.82-.58-1.34-.76-3.12-.35-4.48.16-.51,2.71-.93,3.71-.45,4.72,2.27,9.54,3.31,14.73,2.25,2.57-.53,4.55-1.72,4.74-4.68.2-3.02-1.92-4.03-4.25-4.64-3.26-.85-6.6-1.41-9.86-2.25-5.96-1.54-9.06-4.95-9.36-10.1-.31-5.18,2.85-9.91,8.26-11.87,6.39-2.32,12.67-1.79,18.67,1.41,1.9,1.01,3.4,2.46,2.15,4.83-1.21,2.29-2.99,1.66-4.87.73-3.7-1.82-7.58-2.54-11.67-1.53-2.81.7-4.87,2.22-5.01,5.3-.15,3.18,2.14,4.34,4.76,4.99,3.58.88,7.24,1.5,10.75,2.59,5.24,1.62,7.74,4.69,7.93,9.08.22,5.15-2.15,9.16-7.16,11.14-2.79,1.11-5.86,1.53-9.1,2.33h-.01Z"/>
  <path class="cls-1" d="M166.17,142.21c1.68,1.54,3.41,2.44,4.08,3.85,5.24,11.15,10.35,22.37,15.26,33.67.49,1.13-.05,3.5-.97,4.26-1.63,1.36-3.75.69-4.88-1.17-1.14-1.88-2.01-3.94-2.79-6-.62-1.65-1.58-2.17-3.32-2.13-4.96.12-9.93.13-14.89,0-1.82-.05-2.65.66-3.23,2.24-.69,1.87-1.5,3.72-2.45,5.47-1.11,2.06-2.9,2.81-5.06,1.71-2.11-1.07-1.8-2.92-1.03-4.66,5.01-11.15,9.99-22.3,15.17-33.37.66-1.42,2.41-2.33,4.1-3.88h0ZM166.13,151.77c-2.52,6.01-4.76,11.37-7.04,16.82h14.19c-2.39-5.62-4.64-10.92-7.15-16.82h0Z"/>
  <path class="cls-1" d="M250.84,174.36c3.99-9.27,7.65-17.79,11.32-26.31.38-.87.72-1.76,1.19-2.58,1.13-1.97,2.78-3,5.02-2.01,2.44,1.08,2.23,3.01,1.31,5.06-4.14,9.24-8.26,18.49-12.38,27.73-.82,1.83-1.35,3.88-2.53,5.43-.97,1.28-2.68,2.63-4.13,2.71-1.29.07-3.35-1.25-3.93-2.48-5.25-11.28-10.27-22.67-15.3-34.06-.85-1.93-.28-3.58,1.77-4.4,2.04-.82,3.83-.32,4.87,1.65,1.13,2.14,2.04,4.4,3.01,6.62,3.18,7.33,6.34,14.66,9.78,22.64h0Z"/>
  <path class="cls-1" d="M38.88,141.99c1.85,1.84,3.59,2.86,4.3,4.38,5.2,11.06,10.18,22.22,15.24,33.35.79,1.73.88,3.37-1,4.38-1.97,1.06-3.85.54-4.98-1.29-1.15-1.87-2.03-3.93-2.81-6-.62-1.64-1.54-2.19-3.3-2.17-6.23.07-12.47,0-18.7-.07-3.81-.04-5.02-1.81-3.48-5.23,3.41-7.6,6.8-15.2,10.42-22.69.78-1.6,2.5-2.75,4.3-4.65h.01ZM46.12,168.73c-2.44-5.77-4.67-11.03-7.18-16.95-2.51,5.98-4.77,11.35-7.12,16.95h14.3Z"/>
  <path class="cls-1" d="M111.12,149.87c-3.87,0-7.24-.05-10.61.02-2.3.04-3.75-.93-3.72-3.26.03-2.2,1.48-3.04,3.61-3.03,9.61.03,19.21.02,28.82,0,2.08,0,3.55.7,3.58,3.02.03,2.45-1.42,3.29-3.68,3.26-3.36-.04-6.72,0-10.48,0v28.92c0,4.12-1.05,5.75-3.7,5.81-2.71.06-3.81-1.55-3.81-5.62v-29.1h-.01v-.02Z"/>
  <path class="cls-1" d="M7.71,177.74c5.33,0,10.38.03,15.43,0,2.25-.02,4.12.41,4.1,3.14-.02,2.65-1.79,3.25-4.08,3.23-6.23-.04-12.46,0-18.69-.02-3.27-.02-4.43-1.12-4.44-4.32-.04-10.66,0-21.31-.03-31.97,0-2.63.86-4.31,3.78-4.28,2.94.03,3.76,1.85,3.76,4.38v27.54c0,.62.08,1.25.16,2.31h0Z"/>
  <path class="cls-1" d="M299.02,177.74c5.47,0,10.51.03,15.56,0,2.2-.02,4.14.26,4.18,3.05.04,2.91-1.9,3.34-4.28,3.33-6.13-.05-12.25,0-18.38-.03-3.36-.02-4.61-1.2-4.63-4.57-.05-10.55-.03-21.1-.01-31.66,0-2.51.86-4.34,3.8-4.36,2.95,0,3.77,1.73,3.76,4.31-.02,9.8,0,19.61,0,29.92v.02h0Z"/>
  <path class="cls-1" d="M275.45,163.86c0-5.48.04-10.97-.02-16.45-.03-2.52.99-4.18,3.56-4.27,2.74-.1,3.97,1.6,3.98,4.23v32.91c0,2.61-1.17,4.36-3.93,4.28-2.56-.08-3.63-1.7-3.6-4.24.06-5.48.02-10.97.02-16.45h-.01Z"/>
  <path class="cls-1" d="M79.94,200.46c0,3.34.09,6.68-.06,10.02-.04.93-.8,1.82-1.23,2.73-.37-.86-1.04-1.71-1.06-2.58-.11-4.32-.07-8.64-.03-12.96,0-.87.25-1.73.39-2.6.33-.14.65-.28.98-.42,3.39,4.39,6.78,8.78,10.42,13.48,1.12-4.57-.64-9.13,1.11-13.16l1.2.08v18.31c-3.08-.91-3.94-4-5.72-6.04-1.93-2.21-3.59-4.67-5.36-7.02-.21.05-.42.11-.62.16h-.02Z"/>
  <path class="cls-1" d="M230,194.72c3.36,4.36,6.72,8.72,10.31,13.39,1.28-4.44-.8-9.13,1.28-13.13.36.03.73.05,1.09.08v19.09c-4.71-4.42-7.41-9.59-11.72-14.36,0,4.05.08,7.46-.05,10.87-.03.86-.73,1.7-1.12,2.55-.41-.81-1.14-1.62-1.16-2.44-.12-4.42-.08-8.85-.03-13.28,0-.83.31-1.66.48-2.48.31-.09.62-.19.92-.28h0Z"/>
  <path class="cls-1" d="M109.48,213.35c-5.13,0-8.48-3.7-8.42-9.32.06-5.48,3.36-9.06,8.37-9.07,5.01-.02,8.33,3.54,8.43,9.02.1,5.61-3.26,9.36-8.37,9.37h-.01ZM115.07,204.09c-.01-4.49-1.91-6.8-5.6-6.8s-5.64,2.38-5.67,6.79c-.03,4.47,2.18,7.15,5.81,7.05,3.51-.09,5.48-2.63,5.46-7.04Z"/>
  <path class="cls-1" d="M219.55,204.14c0,5.6-3.39,9.26-8.53,9.21-5.02-.05-8.21-3.61-8.23-9.16-.02-5.63,3.35-9.29,8.5-9.23,4.97.06,8.26,3.71,8.26,9.18ZM211.09,197.3c-3.76.04-5.61,2.45-5.54,7.18.07,4.2,2.06,6.61,5.51,6.67,3.59.05,5.86-2.74,5.8-7.13-.06-4.36-2.13-6.76-5.77-6.72h0Z"/>
  <path class="cls-1" d="M55.63,199.87c-.57,4.91.32,9.27-.74,14.09-2.02-2.52-2.26-15.98-.57-19.52,3.62,4.68,7.05,9.11,11.08,14.32,0-4.22-.07-7.62.05-11.02.03-.9.66-1.77,1.01-2.66.45.91,1.26,1.8,1.29,2.72.14,4.33.08,8.66.04,13,0,.79-.23,1.57-.83,2.61-4.37-3.82-7.21-8.85-11.34-13.54h0Z"/>
  <path class="cls-1" d="M162.91,213.52c-.66-.81-1.58-1.53-1.92-2.46-.64-1.76-1.62-2.53-3.51-2.3-1.14.14-2.34.15-3.47,0-2.34-.32-3.76.46-4.41,2.84-.18.65-1.26,1.05-1.93,1.56-.06-.82-.41-1.76-.12-2.44,1.96-4.65,4.03-9.26,6.11-13.86.76-1.69,2.01-3.08,3.22-.58,2.48,5.1,4.64,10.37,6.89,15.58.14.32-.06.78-.11,1.18l-.73.48h-.02ZM155.38,198.1c-1.29,3.17-2.29,5.62-3.38,8.3h6.89c-1.14-2.69-2.15-5.08-3.51-8.3Z"/>
  <path class="cls-1" d="M252.51,209.77c2.11.49,4.24,1.38,6.34,1.32,1.35-.04,3.41-1.21,3.81-2.35.78-2.23-1.52-2.54-3.11-3-1.51-.44-3.13-.62-4.56-1.23-2.67-1.15-3.53-3.78-2.29-6.3,1.86-3.76,9.32-4.47,11.82-1.1.2.27.08.77.16,1.66-1.03-.34-1.72-.7-2.46-.79-1.74-.22-3.57-.66-5.23-.34-.9.17-1.98,1.66-2.12,2.68-.1.7,1.11,1.97,2,2.35,1.62.69,3.69.54,5.12,1.45,1.41.89,3.19,2.67,3.15,4.02-.04,1.57-1.68,4.17-2.97,4.41-2.83.53-5.91-.06-8.85-.42-.56-.07-.99-1.17-1.47-1.8.22-.17.44-.35.66-.52v-.04h0Z"/>
  <path class="cls-1" d="M133.19,209.73c1.87-4.28,3.54-8.11,5.21-11.93.29-.67.49-1.44.95-1.97.33-.38,1.03-.45,1.56-.66.17.55.63,1.23.45,1.63-2.23,5.22-4.46,10.45-6.91,15.57-.79,1.66-2.21,1.14-2.86-.27-2.28-4.97-4.44-10-6.56-15.04-.21-.49.21-1.25.34-1.89.69.46,1.73.76,2.03,1.41,1.78,3.81,3.39,7.7,5.06,11.56.15.35.32.7.73,1.59h0Z"/>
  <path class="cls-1" d="M230.95,70.67c.81,4.93,3.62,7.41,8.36,8.29-4.64,1.01-7.58,3.32-8.24,8.29-1.36-4.34-3.21-7.85-8.57-8.14,4.88-1.07,7.66-3.58,8.45-8.43h0Z"/>
  <path class="cls-1" d="M174.6,197.39c-1.78,0-3.25.09-4.68-.04-.6-.06-1.15-.61-1.73-.93.5-.41.99-1.16,1.5-1.17,4.12-.1,8.24-.09,12.36,0,.48,0,.95.6,1.42.93-.48.41-.94,1.11-1.46,1.17-1.46.16-2.95.06-4.94.06v11.67c0,.84.13,1.72-.05,2.52-.14.6-.68,1.1-1.05,1.65-.45-.57-1.27-1.12-1.29-1.7-.13-3.48-.07-6.96-.07-10.45v-3.69h0v-.02Z"/>
  <path class="cls-1" d="M41.07,204.16c0-2.41-.08-4.83.06-7.23.04-.64.76-1.23,1.16-1.85.43.62,1.21,1.23,1.22,1.86.1,4.82.1,9.65,0,14.47,0,.61-.8,1.21-1.23,1.81-.4-.61-1.12-1.2-1.15-1.83-.14-2.4-.06-4.82-.05-7.23h-.01Z"/>
  <path class="cls-1" d="M193.61,204.42c0,2.31.08,4.63-.05,6.93-.04.64-.72,1.25-1.11,1.88-.44-.58-1.24-1.16-1.25-1.75-.1-4.83-.1-9.66,0-14.5,0-.64.73-1.27,1.13-1.9.43.7,1.18,1.38,1.23,2.1.16,2.41.06,4.83.06,7.24h0Z"/>
</svg>