<?xml version="1.0" encoding="UTF-8"?>
<svg id="Layer_1" data-name="Layer 1" xmlns="http://www.w3.org/2000/svg" viewBox="0 0 3000 467.54">
  <defs>
    <style>
      .cls-1 {
        fill: currentColor;
      }
    </style>
  </defs>
  <path class="cls-1" d="M0,318.16l2916.88-.08c32.85-2.66,83.12,38.9,83.12,71.27v78.19H78.52c-21.92,0-55.54-25.18-66.01-43.96L0,399.85v-81.69h0Z"/>
  <path class="cls-1" d="M1276.17,14.72l73.8,170.39,71.51-170.39h60.94c.25,0,3.52,3.25,3.52,3.5v242.75c0,.25-3.27,3.5-3.52,3.5h-42.19c-.25,0-3.52-3.25-3.52-3.5V96.41l-66.9,163.29c-4.03,7.22-35.87,7.15-40.66,1.03l-68.22-159.64v157.55c0,.77-3.1,3.54-2.34,5.84h-43.36c-.25,0-3.52-3.25-3.52-3.5V18.23c0-.25,3.27-3.5,3.52-3.5h60.94Z"/>
  <path class="cls-1" d="M108.7,62.26C160.61-19.99,315.68-5.21,344.88,94.91c32.79,112.4-56.89,199.87-169.1,168.41-86.12-24.15-111.88-130.06-67.08-201.06h0ZM282.56,202.84c34.37-41.25,25.79-129.07-31.89-147.15-82.31-25.81-132.8,43.85-108.81,120.03,18.18,57.73,104.78,70.23,140.7,27.12Z"/>
  <path class="cls-1" d="M1041.8,192.11c-12.44,3.46,9.96,28.93,18.6,32.83,15.41,6.94,39.35,3.98,54.92-1.62,5.03-1.81,20.39-12.61,22.24-12.29,1.92.33,26.15,23.34,25.11,28.76-68.61,53.92-178.8,28.81-173.69-72.28,5.38-106.44,161.72-116.08,184.16-17.5,1.44,6.31,7.42,42.11-.09,42.11h-131.25ZM1127.35,157.1c-2.89-48.92-87.08-50.36-89.06,0h89.06,0Z"/>
  <path class="cls-1" d="M1708.6,192.11h-138.28c3.14,37.52,43.77,41.97,73.68,32.53,7.4-2.34,19.71-12.23,25.84-11.6,4.64.48,25.88,21.22,24.49,26.5-1.01,3.85-19.04,14.45-23.49,16.5-18.56,8.55-45.74,11.96-66.24,10.46-114.74-8.35-110.83-179.85,4.27-184.2,68.71-2.59,104.15,44.55,99.73,109.81h0ZM1570.31,157.1h89.06c-1.5-49.74-87.76-49.62-89.06,0Z"/>
  <path class="cls-1" d="M2008.6,145.43c-1.89-42.61-67.19-19.42-93.38-14.31-11.06-24.5-27.23-30.31,6.12-41.07,33.05-10.66,104.81-16.39,122.78,21.15,3.38,7.05,9,23.54,9,30.74v119.04c0,.25-3.27,3.5-3.52,3.5h-37.5c-5.64,0-2.08-18.76-4.71-18.7-22.62,20.38-53.81,25.64-83.28,17.63-48.14-13.08-55.04-80.53-10.81-104.33,8.28-4.46,33.99-13.64,42.55-13.64h52.75ZM1934.32,190.49c-2.55,2.79-5.39,10.64-5.56,14.49-1.77,39.17,74.34,28.66,79.62-7.24,3.79-25.76-4.35-23.25-26.71-21.94-13.58.79-37.89,4.37-47.35,14.69Z"/>
  <path class="cls-1" d="M431.25,264.47h-41.02c-.25,0-3.52-3.25-3.52-3.5V88.24c0-.25,3.27-3.5,3.52-3.5h37.5c4.9,0,3.5,17.15,3.54,21.01,34.08-42.09,107.5-25.29,123.43,25.28,1.37,4.36,5.46,23.74,5.46,27.24v102.7c0,.25-3.27,3.5-3.52,3.5h-39.84c-.25,0-3.52-3.25-3.52-3.5v-109.7c0-1.38-6.73-15.22-8.34-17.37-13.34-17.84-53.21-17.04-65.39,2.29-1.37,2.18-8.3,20.9-8.3,22.08v106.2h0Z"/>
  <path class="cls-1" d="M785.16,264.47V84.74h38.67c9.09,0,5.26,14.87,5.88,21,3.68-.39,3.58-5.36,6.88-8.29,33.85-30.05,94.07-13.74,112.03,26.4,1.14,2.55,7.63,21.55,7.63,22.74v114.37c0,.25-3.27,3.5-3.52,3.5h-37.5c-.25,0-3.52-3.25-3.52-3.5v-105.04c0-1.92-7.37-18.18-9.36-21.02-12.85-18.3-51.28-18.48-64.33-1.02-1.61,2.15-8.34,15.99-8.34,17.37v109.7c0,.25-3.27,3.5-3.52,3.5h-41.02l.02.02Z"/>
  <path class="cls-1" d="M2229.44,127.25c-2.49,4.39-1.23,14.47,3.22,17.94,11.06,8.65,51.21,12.43,67.8,18.85,16.81,6.5,32.49,17.9,35.71,36.79,14.31,83.93-111.19,73-158.65,47.1-2.72-3.77,12.62-30.66,17.89-32.19,4.9-1.42,32.11,10.01,42,11.08,12,1.3,66.28,4.38,53.69-20.71-5.26-10.49-56.27-16.19-71.5-22.25-23.3-9.28-38.74-24.7-37.59-51.18,2.51-58.13,87.12-56.8,127-42.53,2.91,1.04,16.46,7.15,17.35,8.55,3.13,4.94-12.26,28.06-16.97,32.52-13.25-6.82-72.47-17.15-79.95-3.99v.02Z"/>
  <path class="cls-1" d="M1804.69,84.74h45.7c.25,0,3.52,3.25,3.52,3.5v33.85c-2.3-.76-5.08,2.33-5.86,2.33h-43.36v85.2c0,.7,4.92,11.68,5.91,12.79,12.05,13.5,36.26.48,40.98,3.4,3.43,2.12,10.89,30.76,9.06,33.68-25.09,9.53-65.32,12.84-85.29-8.98-26.33-28.77-10.86-86.25-15.52-122.25-2.52-7.63-26.88-1.17-34.83-6.16v-33.85c0-5.98,29.44-2.73,35.16-3.5v-51.35h41.02c.25,0,3.52,3.25,3.52,3.5v47.85h0Z"/>
  <path class="cls-1" d="M638.67.71c3.05.94,3.31,5.31,3.63,8.05,7.02,59.54-5.43,132.7-.08,193.81.3,3.39,3.74,21.17,4.94,21.93,2.72,1.72,9.19-1.72,11.7,1.64,2.66,3.56,2.95,25.09,2,30.09-3.33,17.52-47.45,6.5-55.65-9.8-1.32-2.61-7.56-25.49-7.56-27.48V3.04c2.3.76,5.08-2.33,5.86-2.33,7.7,0,30-1.59,35.16,0h0Z"/>
  <path class="cls-1" d="M2137.5,3.05v215.91c0,6.64,15.73,5.22,16.41,5.84,1.25,1.15.64,30.39,0,33.85-1.62,8.74-17.18,6.43-24.36,5.57-20.32-2.43-32.8-13.87-36.02-34.15-10.35-65.24,6.66-153.6-.69-221.3-.51-2.39,1.69-8.05,3.63-8.05h35.16c.77,0,3.56,3.09,5.86,2.33h.01Z"/>
  <path class="cls-1" d="M2721.1,134.93c2-6.44,28.17-6.68,24.6,8.16,20.77-24.28,58.91-16.29,75.01,9.31,22.38-35.62,74.43-30.63,88.8,9.64.77,2.16,3.78,11.58,3.78,12.58v89.86c-5.74-.69-18.63,2.67-20.77-3.83-3.78-11.48.89-51.53-.23-67.46-1.92-27.38-11-52.3-44.75-42.04-28.91,8.78-14.39,84.6-18.62,107.5-1.39,7.51-13.43,7.34-19.54,5.92-7.55-1.75-2.41-75.81-3.85-87.67-3.66-30.28-43.55-38.23-56.47-11.78-1.01,2.07-4.52,12.84-4.52,14.17v81.69c0,5.08-23.44,5.08-23.44,0v-126.04h0Z"/>
  <path class="cls-1" d="M699.61,84.74h37.5c.25,0,3.52,3.25,3.52,3.5v172.73c0,.25-3.27,3.5-3.52,3.5h-37.5c-.25,0-3.52-3.25-3.52-3.5V88.24c0-.64,2.74-2.32,3.52-3.5Z"/>
  <path class="cls-1" d="M2671.08,146.23c25.84,23.86,26.51,72.81,3.2,98.46-18.83,20.72-48.77,25.42-75.09,18.66-53.27-13.7-62.03-98.41-13.34-125.39,25.87-14.33,63.22-12.04,85.23,8.28h0ZM2654.65,235.64c23.43-22.05,16.52-82.1-21.33-85.65-15.62-1.47-30.33-1.37-42.29,9.46-23.1,20.91-19.26,69.61,10.53,82.86,16.77,7.45,39.28,6.33,53.09-6.66h0Z"/>
  <path class="cls-1" d="M2530.55,141.41c6.52,5.67-2.73,16.37-7.99,17.72-4.6,1.18-17.99-8.2-27.52-9.14-19.7-1.95-39.16.09-49.09,19.03-17.24,32.88-.24,80.92,41.65,78.38,10.95-.66,32.99-14.49,40.09-8.55,21.18,17.71-30.53,27.96-42.13,27.96-118.82-5.43-73.57-189.59,45-125.39h-.01Z"/>
  <path class="cls-1" d="M737.49,53.62c-29.01,28.89-64.61-24.84-31.85-42.21,26.52-14.06,53.11,21.04,31.85,42.21Z"/>
  <path class="cls-1" d="M2392.32,239.47c14.6,15.74-12.82,35.97-22.92,19.32-10.78-17.78,13.64-29.32,22.92-19.32Z"/>
</svg>