<?xml version="1.0" encoding="UTF-8"?>
<svg id="Layer_1" data-name="Layer 1" xmlns="http://www.w3.org/2000/svg" viewBox="0 0 663.98 136.64">
  <defs>
    <style>
      .cls-1 {
        fill: currentColor;
      }
    </style>
  </defs>
  <path class="cls-1" d="M408.48,117.73h-29.96v-44.3c0-2.9-3.8-5.99-6.73-6.26-1.55-.15-8.25,2.34-8.25,2.78v47.78h-29.46c-.11,0-1.5-1.39-1.5-1.49v-44.8c0-6.28-14.98-4.07-14.98,0v46.29h-29.96V42.07h29.96c.35,0-.26,6.05,0,6.97,12.05-11.96,30.4-10.81,40.43,2.97,10.97-14.88,38.11-15.2,47.47,1.48.52.92,2.96,6.62,2.96,7v57.24h.02Z"/>
  <path class="cls-1" d="M621.19,117.73h-29.96v-45.3c0-1.88-4.34-5.3-6.55-5.44s-8.43,2.68-8.43,4.45v46.29h-29.96v-43.3c0-.3-2.1-5.04-2.51-5.47-3.77-3.98-13.47-.37-13.47,3.47v45.3h-29.96V42.07h29.96c.35,0-.26,6.05,0,6.97,12.5-11.69,30.09-11.03,40.43,2.97,10.85-14.47,36.38-15.21,46.87.08.71,1.04,3.56,6.73,3.56,7.4v58.24h.02Z"/>
  <path class="cls-1" d="M119.88,112.75v23.89h-30.96V42.07h29.96c.25,0-.18,4.19,0,4.97,3.56-1.12,5.42-3.83,9.2-5.25,22.3-8.39,42.67,6.77,46.46,28.91,5.81,33.93-22.78,62.77-54.67,42.06h.01ZM129.61,67.19c-15.99,2.55-13.21,27.18,3.63,25.6s14.51-28.49-3.63-25.6Z"/>
  <path class="cls-1" d="M41.65,39.46c53.79-.42,55.33,76.89,3.86,80.29-58.41,3.87-61.57-79.85-3.86-80.29ZM38.72,67.18c-17.58,3.55-9.26,33.24,8.95,23.87,13.16-6.77,5.53-26.8-8.95-23.87Z"/>
  <path class="cls-1" d="M447.43,42.07v43.3c0,2.21,4.79,5.61,7.41,5.46,2.83-.16,7.57-3.71,7.57-6.46v-42.31h29.96v50.27c0,.5-3.16,8.04-3.79,9.16-11.48,20.7-48.89,22.86-64.11,5.77-1.49-1.68-6.99-11.32-6.99-12.94v-52.26h29.96,0Z"/>
  <path class="cls-1" d="M217.74,18.17v23.89h12.98v25.88h-12.98v21.4c0,3.91,11.98,1.85,11.98,2.49v25.88c-13.23,1.14-39.35,4.83-41.85-13.53-1.46-10.67,1.02-23.68-.23-34.62-.5-2.9-8.85-1.16-8.85-1.63v-25.88c0-.45,8.99.45,8.99,0v-23.89h29.96Z"/>
  <path class="cls-1" d="M278.66,42.07v74.17c0,.11-1.39,1.49-1.5,1.49h-27.96c-.11,0-1.5-1.39-1.5-1.49v-48.28c0-.45-8.99.45-8.99,0v-25.88h39.95Z"/>
  <path class="cls-1" d="M641.9,82.13c29.63-4.97,28.91,40.86,1,36.35-20.56-3.32-19.54-33.24-1-36.35Z"/>
  <path class="cls-1" d="M258.41.48c21.67-4.47,32.03,23.67,13.97,33.83-25.18,14.17-39.84-28.5-13.97-33.83Z"/>
</svg>