<?xml version="1.0" encoding="UTF-8"?>
<svg id="Layer_1" data-name="Layer 1" xmlns="http://www.w3.org/2000/svg" viewBox="0 0 1920 1920">
  <defs>
    <style>
      .cls-1 {
        fill: #fddd06;
      }
    </style>
  </defs>
  <path class="cls-1" d="M1269.71,5.81c5.72,3.18,5.84,7.34,13.66,11.45,1.02.53,1.11,2.42,1.91,2.51,7.14.79,7.44-3.41,10.01-5.37,10.21-7.77,47.1,7.39,57.03,14.54,5.53,3.98,12.26,15.57,17.03,18.11,4.77,2.55,15.49,3.45,19.07,5.65,1.89,1.17,22.56,26.01,25.15,29.62,6.26,8.72,6.38,12.14,9.89,21.48,2.78,7.4,12.08,12.5,16.64,18.51,2.57,3.39,9.69,15.06,11.51,18.55,2.44,4.69,7.32,17.52,6.11,22.45-.28,1.14-2.7.4-2.67,2.77.17,13.56,7.13,24.46,8.98,37.05,2.36,16.12,5.26,45.98,4.11,61.6-.2,2.67-2.73,18.99-3.3,20.29-3.82,8.73-17.41,4.26-18.48,16.23.36,4.35,14.14,14.12,17.11,19.35,6.06,10.67,5.54,49.6,5.66,63.6.05,6.47-2.17,14.7-1.03,21.68,3.49,3.29,9.98-7.27,11.41-10.09,5.37-10.58,5.8-24.84,13.2-33.88,6.56-8.02,20.07-16.69,30.38-17.75,18.42-1.89,69.78,8.96,87.65,16.04,10.06,3.99,17.9,12.26,21.91,22.41,2.2,5.55,4.82,25.79,14.31,23.07,2.98-.85,7.17-6.28,13.53-7.38,17.07-2.94,46.84,13,62.27,21.52,23.02,12.7,24.31,22.23,31.18,47.14,5.09,2.84,11.09,2.37,16.46,4.3,9.17,3.31,42.31,32.5,46.29,40.99,3.61,7.7,2.49,15.07,11.38,19.96,11.07,6.09,17.66,5.42,26.78,17.46,3.7,4.88,20.24,40.32,19.45,44.48-.17.88-2.41.72-2.64,1.7-1.2,5.06,7.34,14.66,9.99,19.86,15.57,30.62,8.99,43.68,10.66,74.54.99,18.29,5.75,33.07-.31,52.11-2.44,7.66-7.43,9.03-10.24,14.56-3.19,6.28-2.45,15.18-5.71,23.1-1.38,3.35-15.05,28.73-16.61,30.42-8.7,9.4-35.87,7.6-39.64,12.28-3.05,3.79.09,10.16.18,14.53.53,25.09-3.55,41.7-22.73,58.46-6.17,5.39-34.14,22.83-34,30.64.02,1.24,1.9,7.88,4.06,7.29,6.41-1.74,16.46-10.49,24.18-13.57,16.36-6.54,39.63-6.28,53,6.56,7.91,7.59,28.09,47.47,34.32,59.72,8.95,17.62,17.62,36.42,5.06,55.1-1.9,2.82-12.74,11.63-12.2,13.83,7.51,7.23,23.73,13.1,28.73,22.1,3.87,6.96,9.7,28.54,12.29,37.43,5.8,19.92,12.53,33.11,1.06,52.85-3.21,5.53-8.31,8.15-10.76,13.95,10.05,21.82,15.02,47.74,9.72,71.67-1.63,7.36-8.4,17.14-8.78,22.71-.53,7.72,4.84,15.41,5.3,23.58,1,17.44-10.49,45.2-20.74,59.16-8.51,11.6-6.69,12.43-12.67,23.9-3.9,7.48-22.16,33.83-28.3,38.25-4.95,3.57-13.43,5.44-16.68,9.33-2.5,3-4.8,10.03-7.78,14.43-14.51,21.42-34.02,18.86-52.67,29.27-2.77,1.55-2.87,3.92-4.47,5.02-10.53,7.18-29.61,15.81-42.36,15.83-4,0-10.96-2.88-14.05-2.35-1.89.33-5.54,3.87-9.54,4.56-26.66,4.64-81.36-3.05-107.1-12.77-7.89-2.98-15.12-9.46-23.56-11.54-7.54-1.87-17.12-1.77-25.17-3.34-132.16-25.73-254.64-81.97-372.68-145.63-18.61-14.74-15.68-30.52-4.98-49.24,14.51-25.39,35.59-17.78,58.41-8.95,32.38,12.54,63.73,28.49,96.08,41.66,87.95,35.81,218.16,83.57,313,67.65,25.38-4.26,49.68-20.95,65.04-41.66,12.29-16.57,8-69.05,3.91-89.41-9.7-48.26-54.6-121.68-83.74-161.89-13.52-18.65-30.6-35.28-41.93-55.97-18.09,8.42-35.16,18.74-53.31,27.07-41.85,19.22-98.71,45.9-142.25,57.83-16.14,4.42-33.37,3.58-41.91-13.18-13.88-27.22-4.22-46.09,20.88-59.4,24.19-12.83,52.21-23.77,77.64-36.75,25.26-12.89,50.72-25.28,74.9-40.19-1.16-11.26-14.55-16.32-21.87-22.79-11.21-9.91-20.42-23.13-31.63-33.56-18.26-16.99-36.99-34.17-56.31-49.18-16.56-12.86-31.27-27.02-48.53-40.06-44.95-33.99-90.54-67.88-137.82-99.1-13.69-9.04-81.17-45.63-84.96-56.89-1.23-3.66-1.97-19.16-4.11-20.82-5.82-.4-12.13,2.95-17.91,4.33-53.89,12.8-107.63,21.62-160.93,37.54-13.84,4.14-48.49,13.64-59.31,19.9-3.38,1.95-6.69,4.84-8.66,8.28-5.23,9.15-9.69,27.09-14.33,37.99-61.7,144.79-100.74,291.13-127.9,446.7-21.57,123.55-31.05,312.74,5.17,432.65,20.25,67.06,54.01,153.1,140.94,121.53,56.25-20.42,109.91-96.52,141.72-146.36,29.4-46.06,60.47-101.69,84.14-150.98,10.43-21.71,17.45-45.59,28.41-67.03,12.42-24.3,24.5-40.86,54.14-29.55,7.23,2.76,23.65,12.5,24.92,20.67,3.39,21.77-8.91,37.05-16.05,55.79-27.36,71.74-55.95,136.76-92.31,204.41-21.34,39.71-45.09,72.04-71.33,107.8-33.77,46.02-58.14,101.94-107.52,133.52-8.28,5.3-9.56,6.24-17.37,12.57-16.4,13.28-31.4,12.49-49.79,17.74-6.73,1.92-10.4,7.07-15.5,9.21-12.06,5.05-35.86,5.95-48.17,1.62-3.45-1.21-5.86-4.71-8.15-4.95-4.77-.5-8.57,5.7-12.94,6.54-11.71,2.26-36.36-6.82-47.46-12.1-10.01-4.76-17.04-13.01-28.82-12.88-2.68.03-5.38,1.52-7.68,1.37-6.07-.41-35.79-14.8-40.73-19.08-7.08-6.13-9.94-19.73-15.58-26.21-4.55-5.23-19.05-9.76-25.82-15.81-6.48-5.79-27.16-27.55-30.78-34.42-3.91-7.42-3-13.04-5.07-19.8-3.55-11.58-18.68-6.95-27.51-11.47-12.67-6.49-21.21-29.57-26.59-42.61-2.11-5.11-13.23-33.31-13.24-36.35,0-.96,3.67-14.25,4.31-16.01,1.47-4.01,3.72-8.53,6.95-11.31-7.5-6.12-18.62-5.32-27.56-10.08-15.09-8.04-24.16-31.23-28.68-47.05-4.21-14.76-13.92-53.46-10.4-67.02,3.3-12.7,20-27.34,31.75-32.12,7.88-3.2,24.24-5.3,30.14-8.8,6.89-4.09-1.83-7.12-6.23-7.63-21.57-2.48-46.68,3.67-67.89-4.62-36.93-14.43-34.22-51.76-36.22-85.36-.74-12.39-.3-25.03-1.3-37.42-19.37,1.02-39.56.15-58.85,1.33-13.53.83-60.53,8.96-69.61,6.61-1.5-.39-.33-3.4-5.33-4.08-8.17-1.1-8.14,2.52-10.36,2.81-12.97,1.72-51.2-5.42-65.45-8.59-8.03-1.79-15.8-7.15-22.9-8.27-9.63-1.52-16.82.69-27.21-2.57-15.71-4.93-81-50.2-90.1-63.49-4.3-6.28-6.53-20.77-9.69-24.31-2.14-2.4-13.88-5.51-18.85-11.07-8.04-8.99-17-46.39-14.82-58.39.56-3.08,3.77-5.59,4.57-8.59,2.55-9.57-8.48-17.57-12.09-24.61-6.79-13.27-4-33.17-.5-47.18,2.74-10.94,14.68-32.58,13.07-41.75-2.03-11.56-6.56-14.96-5.16-30.34,1.22-13.42,25.01-62.3,35.63-70.21,9.47-7.06,23-5.67,34.26-6.58,1.55-1.42-7.5-9.37-8.83-11.37-13.04-19.5-11.43-37.33-1.32-57.39,4.76-9.43,39.56-53.01,47.64-59.32,10.94-8.53,27.28-10.25,40.66-8.39,12.4,1.72,35.1,24.92,41.24,23.35,6.79-1.73,1.57-8.71-.6-12.08-12.14-18.79-38.53-40.68-42.15-64.9-2.03-13.57,13.59-42.43,22.93-52.26,7.58-7.98,19.79-13.57,28.51-20.96,15.74-13.34,28.28-31.14,47.75-40.86.78-3.37-23.31-28.1-26.87-34.22-9.58-16.45-18.41-39.7-28.13-55.5-3.94-6.4-12.62-10.94-16.57-18.64-5.64-11-9.11-31.41-8.4-43.72.78-13.62.07-10.22-2.14-23.06-2.88-16.65-5.55-37.79.1-53.88,1.77-5.05,5.98-9.7,6.78-14.13,3.94-21.8-1.11-32.74,11.44-55.37,9.31-16.78,17.25-15.56,33.45-22.52,4.24-16.48,3.59-26.34,16.2-38.72,17.56-17.24,39.94-28.57,64.63-29.59.95-13.69-.71-22.04,8.45-32.79,10.88-12.78,51.07-26.21,67.87-29.59,18.64-3.75,34.11,2.2,42.08,20.4,4.05-.91,17.25-22.13,22.64-26.92,11.21-9.97,27.65-12.87,42.06-13.77,15.92-.99,48.41-3.03,62.76.6,12.47,3.15,22.51,12.55,27.77,24.34,6.52,14.6,3.92,30.27,8.39,45.33,25.88,12.12,57.95,24,80.64,41.57,26.36,20.42,9.56,39.23.87,64.13,8.29-2.6,16.37-7.27,25.24-7.88,33.73-2.3,68.94,39.22,101.9,44.45,2.93-.69,28.32-38.44,28.15-41.09-29.63-27.13-73.6-50.82-54.64-98.81,6.61-16.73,15.72-19.93,26.15-31.23,5.51-5.97,8.84-14.94,14.8-21.75,7.03-8.04,16.41-14.84,23.98-22.93,3.7-3.96,5.36-8.55,9.7-12.48,17.03-15.45,41.78-14.29,60.53-2.41,6.01,3.81,8.25,8.71,13.21,12.85,4.21,3.52,34.63,27.39,38.11,23.67.04-13.14-13.12-21.35-18.33-31.94-1.59-3.22-6.95-18.5-7.29-21.6-.84-7.59,7.32-27.53,13.36-33.12,23.97-11.74,54.7-52.12,81.49-52.65,6.94-.14,26.68,7.17,30.9,3.98,2.92-2.21,4.92-16.97,6.99-21.87,7.92-18.82,24.4-22.36,40.67-30.94,8.85-4.66,19.31-13.54,29.1-15.1,9.68-1.54,28.96,1.39,36.43,8.35,2.98,2.78,6.18,10.79,9.89,11.1,4.32.36,14.67-11.36,21.3-13.84,7.23-2.7,36.48-7.41,44.54-7.29,5.88.09,17.05,2.92,22.22,5.8ZM1255.76,30.47c-4.11-2.62-44.29,4.23-49.44,7.82-8.48,5.91,2.6,22.46-.13,28.69-2.91,6.65-22.87,6.97-29.05,4.57-18.9-7.32-12.06-46.81-37-40.04-8.81,2.39-38.68,17.38-45.74,23.15-5.09,4.16-7.18,5.9-6.69,13.09.73,10.73,19.29,33.88,17.97,40.33-1.59,7.75-25.49,19-30.4,27.09-4.39,1.19-10.52-11.53-13.35-14.93-3.48-4.17-23.75-25.37-27.09-26.41-5.85-1.83-19.09,7.32-24.51,10.74-10.79,6.82-42.74,30.71-46.81,41.88-1.41,3.86-.38,7.01,1.36,10.61l29.82,41.98-22.62,26.94c-6.4,4.62-16.23,12.77-24.49,11.76-16.07-1.97-38.6-39.42-58.98-46.59-27.11-9.54-41.2,21.38-55.65,38.05-16.64,19.19-50.11,41.97-31.02,70.97,4.8,7.28,13,9.81,19.32,14.53,6.54,4.87,20.94,19.59,25.93,26.21,4.15,5.52,5.97,8.25,5.11,15.62-1.62,13.77-4.84,22.22-11.79,34.01-6.48,10.99-14.75,23.84-25.46,30.62-17.59,11.13-23.3,10.59-41.12.72-22.77-12.62-62-46.75-88.68-34.02-15.33,7.32-34.63,52.44-43.67,68.61-11.01,19.68-33.2,45.35-30.89,69.44,1.52,15.87,8.39,20.05,20.96,27.31,20.02,11.57,44.45,22.11,63.35,35.49,12.6,8.92,12.59,14.98,11.22,30.59-1.22,13.89-18.29,59.92-29.5,67.21-9.54,6.2-12.34,3.85-22.56.14-27.72-10.09-59.13-25.18-87.85-31.63-16.05-3.61-31.37-2.71-43.29,10.09-5.38,5.78-16.55,32.18-19.88,40.89-15.5,40.52-25.97,83.8-40.12,124.73,4.49,35,31.24,36.69,57.27,47.01,17.79,7.06,51.83,17.97,66.51,27.03,7.64,4.71,12.15,10.91,12.08,20.6-.06,8.22-11.92,38.57-14.9,49.22-3.85,13.75-4.64,28.5-10.77,41.61-4.91,10.49-10.9,10.2-21.55,9.61-28.49-1.59-59.08-11-87.81-13.06-28.76,7.42-30.8,36.38-35.33,61.43-4.45,24.63-11.35,58.26-13.17,82.5-1.06,14.02,2.82,26.75,15.61,33.72l97.25,22.09c7.15,7,10.5,18.16,11.21,28.02.85,11.88.89,34.4-1.67,45.7-.69,3.04-11.37,27.96-12.62,29.21-5.05,5.02-40.48,3.9-49.77,4.62-15.11,1.18-38.23.7-43.92,18.45-1.76,5.48-1.03,22.83-.77,29.53.95,24.75,4.3,49.76,5.5,74.53,1.16,4.82,11.23,15.77,15.93,16.66,10.63,2.02,21.81,0,32.26-.03,10.41-.03,36.47-1.76,44.8.62,3.65,1.04,9.4,12.82,10.85,16.53,5.77,14.8,6.06,29.5,1.31,44.62-3.38,4.71-43.24,8.52-52.85,14.63-5.7,3.62-5.03,10.25-4.67,16.23.9,14.93,7.34,44.33,11.72,59.01,2.58,8.65,4.24,17.26,14.92,17.68l52.77-9.02c9.93.98,17.38,28.52,14.27,36.7-2.89,7.61-20.21,12.53-27.34,16.88-16.44,10.02-15.17,11.74-8.38,28.72,3.4,8.52,11.69,27.38,16.48,34.49.87,1.29,6.04,6.84,7.05,7.28,11.5,5,37.79-14.67,46.51-10.48.39.19,6.36,5.13,6.58,5.5.68,1.13,6.5,17.15,6.41,18.1-.72,6.96-18.76,13.2-18.09,22.19.57,7.66,17.61,30.63,24.12,34.75,15.08,9.56,19.88-10.35,30.71-8.94,3.78.49,15.94,12.99,16.27,16.51.86,9.04-14.7,20.86-5.08,32.62,4.12,5.04,23.7,14.54,30.32,13.98,9.73-.82,11.87-16.39,19.17-14.63,1.09.26,1.24,2.54,2.27,3.18,2.49,1.56,8.35,3.48,9.62,6.08,2.45,5.03-4.47,13.34,2.63,19.63,2.88,2.56,29.08,9.38,33.56,9.37,16.89-.02,9.41-12.76,13.49-19.24,2.33-3.69,11.79-5.58,15.58-3.82,9.65,4.46,1.27,18.36,8.69,22.71,4.79,2.8,30.36,1.82,34.01-1.74,5.69-5.54-1.58-25.96,12.4-28.28,1.86,1.83,5.73,3.21,7.09,4.57,3.14,3.13,4.74,13.06,11.01,13.93,5.37.75,19.33-8.03,21.61-13.57,3.08-7.47-9.46-17.8,1.56-25.91,11.85-8.72,18.56,13.19,27.02,10.4l15.06-16.56c2-4.05-6.41-14.33-2.66-16.87,7.11-4.79,14.03,12.04,24.65-1.23,6.44-8.04,5.65-14.74,4.45-24.27l2.83-2.49,6.33,2.47c4.68-.07,15.08-24.99,18.17-30.12,10.44-17.28,26.52-32.15,38.34-49.07,48.31-69.2,88.77-149.96,122.61-227.49,7.95-18.21,36.74-81.75,37.52-97.27.47-9.37-10.51-12.53-15.61-7.86-8.25,7.55-20.47,42.38-26.44,54.58-44.94,91.93-97.82,199.14-166.87,274.48-23.01,25.11-63.61,59.39-96.38,67.62-13.25,3.33-32.19,4.44-45.76,3.12-79.05-7.66-109.56-101.89-125.96-168.93-15.84-64.78-20.97-128.59-18.36-195.32.15-240.42,63.07-479.21,153.24-699.4,2.62-6.39,5.56-14.17,8.54-20.22,9.47-19.22,12.54-19.81,32.49-26.12,193.31-61.1,411.61-100.47,614.75-81.08,79.1,7.55,159.02,25.24,221.73,76.94,13.49,11.12,34.3,44.56,26.53,62.18-1.62,3.66-8.57,7.89-6.08,12.83l56.88,58.05c3.43.93,12.4-10.48,18.19-11.46,5.25-.88,8.85,3.49,12.38,3.38,8.6-.28,15.26-17,17.66-24l-2.47-4-13.77-9.74c-.03-7.02,5.74-15.69,13.05-15.7,3.96,0,5.76,4.65,13.05,1.35,8.81-3.98,5.32-28.37,5.13-36.98l-22.16-5.17,3.46-19.55c5.33.53,17.29-1.69,19.02-7.67,1.25-4.31-6.73-35.75-10.02-39.19-5.22-5.45-16.44,2.94-23.2.56l-7.79-22.01,20.24-13.88-19.24-37.32c-4.44-2.84-22.39,13.47-28.26,14.27-.16-5.07-6.36-5.69-8.7-8.25-2.49-2.72-5.06-9.49-9.24-12.28-.85-4.44,16.17-16.07,13.36-24.04-2.47-7-26.86-27.68-34.24-29.71-10.73-2.94-16.78,16.82-24.01,17.85-5.05.72-22.22-8.45-25.29-12.47-1.1-1.44-.98-1.67-.68-3.36.84-4.62,6.2-16.89,8.34-21.87,1.95-4.53,9.15-12.92,7.8-17.86-1.51-5.55-29.01-22.04-35.15-24.83-4.47-2.03-24.79-8.28-28.44-7.42-4.99,1.17-10.53,18.51-13.16,23.45-4.1,7.7-8.4,18.76-17.95,18.27-6.96-.36-31.57-6.63-32-15-1.34-26.37,32.74-57.94-8.66-69.9-19.44-5.62-41.96-8.03-61.74-13.63-5.12.31-13.41,9.79-15.35,14.71-4.11,10.4-5.59,39.98-13.05,45.85-12.59,9.9-48.92.27-58.61-12.78-5.56-29.89,18.77-93.76-26.8-97.55-26.51-2.21-58.64-2.47-85.35-2.75-9.07-.1-14.58,3.15-19.33,10.69-8.44,13.41-4.98,40.92-5.84,57.11-.25,4.72-.81,12.43-1.46,16.91-3.59,24.7-50.35,26.8-69.16,25.78-11-.6-31.87-2.75-36.1-14.54-6.86-28-7.93-57.59-13.95-85.68-8.37-39.04-59.78-20.78-86.35-18.06-.24-.18,2.68-4.37,3.37-5.1,19.65-21.13,38.71-44.14,60.63-63.21,9.84-8.56,21.66-14.44,31.66-23.05,15.63-13.46,22.29-20.06,41.6-29.96,18.68-9.59,54.78-27.45,74.9-21.18,42.66,13.29,47.41,61.6,61.08,96.9,7.76,20.04,9.32,11.22,24.9,10.43,10.24-.52,23.04,3.4,32.67.01,4.54-1.59,4.49-6.05,10.68-4.23l-1.31-2.59c5.15-.04,6.44-3.79,6.47-8.56.03-4.02-3.87-7.7,1.37-9.27-3.19-6.21.62-9.77-6.54-13.07-3.04-1.4-14.97-2.98-15.58-5.47-3.53-14.38,15.92-5.4,15.23-21.75-.08-1.89-4.07-16.42-4.89-18.34-.54-1.25-3.85-3.2-4.74-5.07l-9.43,1.37,2.59-5.23-5.8-1.35,1.92,2.66c-.98,3.33-4.95,2.68-7.76,2.61-1.44-3.5,3.89-3.12,3.85-4.59-.03-1.22-4.53-1.12.77-7.13,3.85-4.36,16.58-9.93,15.46-15.96-.45-2.4-5.72-12.24-7.37-14.83-.57-.89-4.87-6.77-5.48-7.47-4.16-4.79-9.21-3.66-14.65-1.48-4.87,1.95-6.45,8.63-12.03,3.24-3.62-3.49-1.22-6.06-1.66-8.67-.3-1.79-3.28-3.74-2-6.48l10-13.23c-6.72-11.1-12.78-22.46-21.79-31.76-12.19-6.22-20.09,17.16-28.98,9.82-2.81-2.33-1.53-4.84-2.74-6.55-1.33-1.87-12.17-3.59-.89-9.37l-1.07-6.32,3.9-.05c-3.69-3.15-1.02-5.51-1.56-8.21-.53-2.63-4.85-8.29-7.49-9.52-3.36-1.56-24.8-8.17-27.94-8.52-7.21-.79-7.66,3.7-9.96,9.21-.45,1.08.29,2.81-.29,3.85-1.22,2.21-7.72,5.44-9.26,9.13h-22.97c-3.27-1.26-.96-4.57-1.38-5.78-.71-2.05-2.39-3.38-2.97-5.55-1.69-6.29-1.13-13.57-5.65-19.86ZM1272.72,396.62c3.62-24.47-1.98-69.96,16.82-88.64,5.13-5.09,15.92-10.23,22.82-12.3,7.75-2.33,27.42-3.2,31.95-5.65,1.44-.77,2.27-1.11,2.28-3.04-3.67-16.57-5.62-33.81-11.9-49.7-4.52-11.46-18.94-39.61-31.63-41.44-32.25-4.66-61.54,20.7-86.79,37.72-17.18,11.58-29.69,22.11-43.12,38.68-.66.82-1.51,1.1-2.53,1-1.66,2.72,10.22,7.94,12.8,9.93,31.69,24.56,31.48,77.49,39.54,113.52.94,1.47,2.42,1.17,3.84,1.35,13.96,1.77,31.76-.98,45.93-1.45ZM562.86,276.96c-2.28-15.04,3.9-59.47-16.45-62.76-14.16-2.28-59.69,1.97-73.84,6.3-6.55,2-11.24,3.68-12.13,11.33-1.8,15.59,1.23,33.99,1.38,49.73-8.77,3.94-32.96,8.23-40.21,1.58-7.83-7.18-9.07-32.88-14.79-44.08-4.02-7.87-15.65-3.78-22.92-2.21-7.63,1.64-40.68,9.91-44.9,13.51-9.97,8.5,8.58,39.71,3.05,53.02-2.51,6.04-16.44,16.81-23.15,15.85-6.93-.99-12.6-17.08-15.8-18.2-7.79-2.74-29.77,8.72-36.53,13.69-8.59,6.33-9.55,8.55-6.51,19.5,2.11,7.6,9.19,10.85,7.48,18.54-.65,2.93-15.75,21.63-18.31,21.39-7.32-2.97-19.18-13.82-26.8-7.06-2.85,2.53-14.56,31.95-13.91,35.35,9.43,10.22,22.22,4.85,16.45,23.71-4.52,14.77-23.35,1.47-25.75,14.56-.74,4.03,1.02,33.56,2.55,36.42,2.26,4.23,14.07,1,18.15,2.91,9.33,17.3,5.4,20.97-12.8,23.2-.38,6.42-.53,34.16,5.85,36.38,11.86.98,28.63-5.8,28.78,11.92-3.81,1.13-14.08,2.43-14.85,6.59-.83,4.45,8.77,26.39,13.29,27.46,3.03.72,17.5-5.46,21.21-.3,5.6,7.79-6.58,11.04-7.34,14.85-1.33,6.72,10.64,28,17.87,26.15,3.95-1.01,9-9.94,13.98-1.81,6.02,9.82-2.69,12.61-2.72,19.76-.02,5.96,13.34,15.97,18.19,14.58l46.42-38.4-43.14-81.96c-4.52-25.49-14.79-59.83,7.03-79.41,46.08-41.34,125.06-37.3,183.06-34.8,26.45,1.14,52.82-.16,77.01,12.43,3.76,1.96,14.36,10.66,17.2,9.79l69.28-124.02c-29.83-18.93-63.2-31.29-95.38-45.5ZM598.86,472.87c-20.64.21-38.62-12.06-58.16-16.46-48.01-10.82-146.15-8.18-192.18,9.83-11.56,4.52-19.93,9.67-21.27,23.06-2.25,22.49,7.02,50.57,17.42,70.27,13.28,25.13,37.66,45.83,25.89,77.46-5.5,14.77-38.63,26.39-43.99,38.13-2.98,6.52,15.23,29.03,20.99,29.94,9.71,1.54,38.75-23.69,48.87-29.99,12.07-7.52,70.28-41.48,80.2-41.76,9.29-.26,21.22,5.39,29.39,4.73,7.39-.6,18.94-8.65,26.92-10.86,21.32-5.89,44.71.22,64.96,7.52,9.37,3.38,63.52,28.78,68.28,25.39,3.57-11.71,18.21-38.51,11.67-49.76-1.36-2.33-20.6-12.65-24.59-14.77-12.43-6.58-27.5-11.16-38.75-19.75-26.39-20.16-43.98-46.4-27.51-80.24l11.87-22.74ZM1449.99,612.06c33.53,10.26,68.42,15.34,101.88,25.94,18.85,5.97,41.93,14.13,60.14,21.68,44.56,18.47,1.79,52.98-10.56,77.64.45,2.66,30.48,30.98,34.7,31.74,5.16.93,38.91-27.63,47.09-32.43,5.31-3.12,13.36-7.36,19-9.6,4.62-1.84,23.73-5.86,24.37-9.4,1.21-6.78-25.76-38.3-32.23-43.08-20.61-15.24-74.2-35.76-99.51-42.12-41.22-10.37-77.48-10.61-118.21-16.56-8.51-1.24-16.79-4.6-25-6.16-2.5-.47-1.63.17-1.67,2.36ZM1726.34,755.72c-5.08-2.73-15.63-2.42-21.17-.77-6.99,2.09-24.92,19.54-32.11,25.19-5.68,4.46-25.93,21.44-31.05,22.31-8.43,1.42-17.35-4.69-24.27-9.36-15.75-10.62-45.76-43.22-44.44-63.29.72-10.96,23.72-32.97,29.17-43.76.45-1.16.23-2.05-.41-3.08-3.01-4.78-95.27-26.99-107.81-29.78-93.39-20.79-190.2-22.15-285.48-13.51-18.28,1.66-36.51,5.17-54.97,5.25-.65,3.07.38,2.11,1.66,2.94,18.42,11.97,39.47,22.19,58.23,34.08,37.23,23.58,74.19,50.75,109.63,76.44,11.5,8.34,19.47,15.83,30.34,24.42,7.22,5.71,16.46,10.12,23.23,15.82,5.11,4.3,9.48,11.49,14.47,15.52,7.49,6.03,19.37,11.46,26.76,17.47,8.08,6.57,15.5,18.5,23.42,24.77,12.37,9.79,22.18,15.64,34.34,27.28,20.97,20.08,42.86,40.25,63.44,61.35,73.18,75.06,151.75,174.84,186.22,275.81,22.68,66.41,15.37,139.59-54.38,169.42-71.18,30.44-154.33,8.59-226.35-10.47-73.3-19.4-142.28-51.51-212.16-80.09-9.84-4.02-31.62-14.01-41.06-14.9-8.46-.8-3.76,13.38,1.62,18.18,7.03,6.27,29.9,18.28,39.24,23.2,71.74,37.88,162.56,77.72,240.56,98.53,54.31,14.49,108.31,25.73,162.22,41.48,15.82,4.62,16.38,4.27,22.45-9.57.7-1.6-.11-3.23,2.5-2.63,4.05,3.8,1.96,11.34,6.73,14.19,3.81,2.28,22.32,3.22,26.58,1.22,7.34-3.45-.55-16.28,9.32-22.05,10.79-6.32,10.75,13.06,17.87,16.15,5.78,2.51,20.84.78,25.01-4.14,5.98-7.07-4.24-31.55,11.5-31.69,12.17-.11,14,19.52,23.03,16.93,1.41-.4,15.47-13.42,17.13-15.54,1.98-2.52,3.13-5.47,5.15-7.94l-8.21-12.2c.39-4.23,9.9-17.6,14.34-16.48,5.18,1.3,13.2,13.38,18.82,10.04l23.38-33.45c.67-4.12-12.05-7.82-13.47-10.94-.58-1.27.37-2.92.16-4.37-.16-1.05-1.53-2.09-1.52-2.82,0-.58,3.65-9.53,4.37-10.8,8.1-14.32,21.38,2.88,27.19-.62,8.47-11.77,18.45-27.77,14.14-42.78l-24.34-9.09c-2.86-5.59-.37-11.48-.16-16.85.13-3.2-2.82-8.03,1.11-11.22l28.9-2.57c-1.94-13.69,2.83-36.14-.57-48.72-2.23-8.23-26.29-.57-32.51-5.04-3.56-2.56-6.88-24.78-5.78-29.42,9.56-6.78,21.96-7.47,32.37-12.06,12.61-5.56,11.86-9.14,10.18-22.13-1.18-9.14-10.2-46.28-17.92-50.09-10.82-5.34-36.12,9.28-47.17,7.23-8.73-1.62-17.52-31.43-14.29-38.1,3.02-6.24,40.67-23.36,47.57-30.14,3.93-4.73.79-14.31-1.02-19.73-2.97-8.9-28.42-54.68-34.29-61.05-1.43-1.55-2.63-3.45-4.64-4.33-2.56-.5-18.82,4.5-22.09,5.99-18.03,8.2-34.46,29.88-51.91,5.94-8.71-11.95-17.05-36.34-6.23-48.56,23.97-27.07,75.71-39.21,42.76-83.1-8.48-11.29-19.74-22.2-28.96-33.63-5.11-6.33-21.82-31.85-26.36-34.29ZM485.03,660.68c-30.09,9.45-55.39,28.43-81.89,44.9-16.56,10.29-21.79,13.63-36.79,26.05-10.78,8.92-20.44,16.53-31.99,3.9-3.98-4.36-6.14-10.99-9.79-16.03-3.68-5.08-11.1-9.21-15.46-13.5-12.2-12.01-22.88-32.99-43.12-20.18-9.95,6.3-23.41,19.12-33.31,26.54-9.08,6.8-11.98,12.45-19.28,19.88-6.23,6.35-24.85,16.45-26.88,25.24-.47,2.05-1.57,11.95-1.34,13.83,1.14,9.06,13.69,18.6,19.14,25.34,4.7,5.82,25.75,30.83,27.26,35.36,7.46,22.31-19.92,39.45-31.73,54.52-9.54-5.76-46.07-37.86-55.36-35.23-3.76,1.06-16.87,16.23-20.3,20.2-5.13,5.94-12.09,14.69-16.81,21.02-12.6,16.9-23.97,29.38-4.52,46.55,5.59,4.93,12.62,7.57,18.07,11.86,4.88,3.84,16.55,14.88,14.65,21.37-5.15,5.21-17.17,33.53-22.68,34.93-12.74-3.44-22.3-13.6-35.36-17.49-4.16-1.24-9.36-4.05-12.18.65-4.42,13.44-29.03,45.86-27.84,58.27,1.08,11.35,37.1,18.09,38.78,27.74.75,4.27-4.06,22.79-8.67,24.08-6.49,1.82-27.48-10.59-34.1.74-2.55,4.36-6.53,42.68-3.91,46.18,3.86,5.16,22.44,1.85,28.67,7.67,5.11,4.78,1.48,23.34,2.35,30.81-4.92,2.49-22.23,6.53-23.13,11.3-1.09,5.76.94,12.3,3.61,17.35,1.4,2.64,13.08,20.09,14.52,20.77,5.38,2.55,11.36-6.2,17.39-5.98,5.8,3.83,16.5,10.55,12.95,18.41-1.71,3.8-15.39,12.09-12.97,17.06,1.59,3.26,30.68,26,33.79,26.35,4.49.5,11.52-14.68,18-15.8,1.02,6.19,10.48,6.76,11.05,12.52.5,5.07-8.23,13.21-5.58,19.91,2.31,5.84,24.6,20.91,30.11,18.17,6.06-8.04,9.66-27.61,23.39-20.93-.94,5.74-3.21,20.46,1.93,24.08,2.87,2.03,26.97,5.58,28.9,3.89.85-4.93,2.69-9.77,4.73-14.3.74-1.66-.26-3.11,2.53-2.69,5.93.91,10.94,15.38,9.83,20.91,9.44,1.59,19.31,3.54,28.73,1.22,2.95-1.18,1.94-5.96,4.13-8.94,7.17-9.79,10.79,6.81,14.11,9.28,3.17,2.35,21.64,1.2,25.78-.3,2.94-1.07,1.03-5.49,5.36-6.4,8.15-1.71,8.25,3.91,11.91,5.02,8.6,2.62,19.79-2.85,28.21-3.66,15.56-1.5,32.15-.33,47.86-1.31,3.78-.23,16.64,1.06,18.18-1.24l4.45-50c-57.08-4.71-116.04-5.27-171.82-19.27-25.83-6.48-77.98-25.58-82.7-56.56-9.36-61.43,56.49-137.82,96.64-178.33,48.99-49.43,104.47-90.96,160.86-130.9,9.57-6.78,19.08-13.8,28.03-21.43-26.12-23.3-21.92-46.75-14.13-77.41,5.45-21.46,13.08-47.67,20.57-68.42,8.26-22.89,21.41-43.72,27.2-67.58ZM476.99,894.68c-12.96,5.88-25.79,14.25-37.63,22.34-31.01,21.18-70.24,50.15-98.52,74.65-6.73,5.83-11.76,14.21-18.77,20.34-5.61,4.91-12.61,8.39-18.14,13.1-36.76,31.32-100.37,105.82-111.86,153.04-4.55,18.69,1.44,27.17,16.27,37.31,31.42,21.48,120.6,34.02,159.58,36.29,20.7,1.2,51.85-2.97,69.94,7.79,5.04,3,8.91,6.91,11.02,12.46,1.9,5,2.09,17.26,7.31,18.85,4.29,1.3,26.25.63,32.07.24,3.57-.24,15.64-1.48,17.46-3.29,3.75-7.95,12.05-44.48,7.89-50.01-4.35-5.78-65.46-12.78-77.5-15.87-67.35-17.26-46.77-81.27-36.85-131.52,3.46-17.51,5.8-35.48,10.09-52.79,11.78-47.53,37-56.21,82.79-51.2,9.94,1.09,53.58,11.29,58.88,8.55,1.26-.64,1.68-1.78,2.23-2.99,3.53-7.77,8.03-27.87,10.08-37.05,2.13-9.49,3.27-19.43,5.23-28.95l-91.58-31.28ZM1537.32,981.52c-19,8.19-36.13,20.12-54.53,29.65-25.15,13.02-50.97,25.45-76.32,38.09-7.25,3.62-46.86,19.45-48.17,24.74,1.12,5.44,3.96,14.46,10.52,13.32,4.46-.77,16.96-7.8,22.63-9.97,53.86-20.55,106.62-42.21,158.56-67.53l3.29-4.14-15.99-24.16Z"/>
  <path class="cls-1" d="M965.39,1251.23c-5-4.58-10.48-13.78-15.32-19.25-44.22-50.04-83.51-104.25-124.88-156.89-7.91-10.07-20.6-17.81-21.78-31.73-1.86-21.81,20.95-66.11,29.26-88.16,14.28-37.95,29.35-75.21,43.98-112.95,6.7-17.29,13.88-52.06,29.61-61.87,7.12-4.44,25.45-9.46,34.05-11.4,73.01-16.44,153.17-20.81,227.05-34.87,10.7.21,20.41,10.93,27.19,18.48,18.69,20.81,33.75,44.98,51.11,66.3,23.08,28.35,45.69,56.48,69.15,84.77,11.91,14.37,29.38,27.35,31.43,48.3.97,9.9-9.44,38.34-13.37,48.81-14.57,38.83-32.7,77.04-47.76,115.68-9.11,23.39-15.89,49.45-25.95,72.15-8.84,19.95-11.57,23.43-32.7,28.53-25.22,6.08-51.37,7.97-76.83,12.61-48.88,8.91-104.01,24.01-153.03,27.18-10.69.69-22.99,1.83-31.21-5.7ZM1171.04,767.93c-4.64-5.23-1.38-8.11-11.27-7.29-22.01,1.83-51.34,11.17-74.31,15.2-47.82,8.4-96.67,12.76-144.14,23.08-14.78,3.21-18.66,1.8-25.37,16.27-19.19,41.37-33.66,87.73-50,130.47-9.53,24.92-29.19,61.24-33.68,86.64-1.69,9.59,6.56,18.19,12.38,25.65,37.78,48.41,76.69,96.48,115.63,143.95,7.46,9.09,13.3,20.13,23.68,27.23,49.74-7.48,99.85-13.67,149.38-22.47,19.27-3.42,38.43-8.69,57.67-12.36,6.58-1.26,36.67-4.01,39.17-7.84,5.33-12.08,8.4-25.31,13.14-37.55,21.28-54.91,46.78-110.93,66.65-166.11,1.63-4.54,9.36-25.41,9.09-28.27-.25-2.61-6.23-11.4-8.22-14.02-23.35-30.78-51.49-58.85-73.75-90.6-11.96-17.05-26.46-29.78-38.04-45.7-10.14-13.93-16.26-23.03-28.02-36.28Z"/>
  <path class="cls-1" d="M1212.21,992.24c0,74.83-59.74,135.49-133.44,135.49s-133.44-60.66-133.44-135.49,59.74-135.49,133.44-135.49,133.44,60.66,133.44,135.49ZM1073.19,888.49c-72.5,3.93-106.08,56.27-97.75,127.29,4.58,39.02,32.57,67.41,68.42,80.26,81.02,29.04,168.7-61.49,135.61-142.94-19.87-48.9-55.13-67.37-106.27-64.6Z"/>
</svg>