<?xml version="1.0" encoding="UTF-8"?>
<svg id="Layer_1" data-name="Layer 1" xmlns="http://www.w3.org/2000/svg" viewBox="0 0 1579.95 591.93">
  <defs>
    <style>
      .cls-1 {
        fill: currentColor;
      }
    </style>
  </defs>
  <path class="cls-1" d="M295.63,0l297.23,295.53-296.43,296.4L0,296.25,295.63,0ZM295.63,17l-114.26,115.89,30.06,29.99,85-84.02,86.49,83.59c3.32-4.4,29.05-27.38,29.04-30.06l-.5-1.48-115.83-113.91ZM182.93,320.89l134.62-202.98c.64-1.16.06-1.65-.53-2.54-1.27-1.89-16.63-17.24-18.54-18.54-.65-.44-1.16-1.03-2.05-.98l-200.43,199.67,75.56,76.29,51.36-50.93h-40,0ZM321.93,221.89l50.04-50.5-50.04-50.5v101ZM271.93,320.89h-31.5c-23.07,22.46-45.17,46.4-68.86,67.93l-92.56-92.56,123.91-124.86-30.62-30.43L17,295.53l153.4,154.42,1.89.87,99.64-99.43v-30.5ZM321.93,270.89h30.5c23.07-22.46,45.17-46.4,68.86-67.93l92.56,92.56-122.46,123.38-.5,1.48c8.78,10.86,19.76,20.39,29.67,30.43l154.42-153.4.87-1.89-154.56-154.56-2.39,1.39-96.97,97.03v31.5h0ZM309.93,282.89v-131l-105,157h78v131l105-157h-78ZM409.93,270.89l-134.87,203.68c2.06,3.23,19.38,21.35,21.37,21.35l200.43-199.67-75.56-76.29-50.36,50.93h39-.01ZM270.93,469.89v-100l-50.04,50.5,50.04,49.5ZM211.43,428.91l-30.43,31.34,115.43,114.67,115.54-115.54-30.4-30.43-85.14,83.96-85-84.02v.02Z"/>
  <path class="cls-1" d="M1579.93,279.89c-60.91,27.63-165.53,34.21-207.81-27.69-26.59-38.92-23.61-101.27,10.79-134.84,47.46-46.32,137.74-37.94,195.03-16.47l-12.56,33.06c-10.19-2.98-19.87-7.82-30.22-10.78-56.63-16.22-144.51-5.9-142.25,70.26,2.23,75.14,95.16,83.45,150.04,63.45v-47h-76l11.79-30.71,1.71-2.29h99.5v103h-.02Z"/>
  <path class="cls-1" d="M1125.93,87.89h133.49c29.62,2.8,58.91,16.77,65.85,48.16,6.15,27.77-4.02,55.63-29.99,68.7-6.62,3.33-14.06,4.16-20.11,6.92-1.03.47-1.57-.2-1.23,1.7l61.98,82.52h-46.5l-60-80h-49.5c1.9-4.45,12.15-31.98,14.66-32.84,20.57-1.68,43.42,1.75,63.72-.28,22.99-2.3,37.89-22.29,27.81-44.57-3.31-7.31-15.61-17.31-23.69-17.31h-98.5v175h-38V87.89h0Z"/>
  <path class="cls-1" d="M1062.87,133.83c-1.23,1.07-25.96-8.97-30.18-10.21-25.27-7.43-56.87-10.59-82.8-5.27-10.23,2.1-22.81,6.91-26.44,17.56-7.15,21.03,13.48,28.86,30.13,31.81,50.14,8.89,135.13-.19,129.38,75.7-5.25,69.3-113.81,60.48-160.87,48.79-14.44-3.59-28.34-9.01-42.15-14.38,1.54-4.33,11.47-32.23,13.64-32.85,1.65-.47,24.6,9.56,28.81,10.94,28.75,9.44,75.25,16.41,104.08,6,24.38-8.8,26.63-35.97,1.72-45.8-40.62-16.02-137.26,2.05-143.24-62.76-6.77-73.28,86.71-74.62,137.01-66.01,6.89,1.18,49.11,11.63,51.52,15.51.73,1.17.48,2.04.28,3.26-1.3,7.88-9.76,19.07-10.88,27.7h-.01Z"/>
  <path class="cls-1" d="M837.93,87.89v33h-137v54h128c-3.92,10.83-7.88,22-13.5,32h-113c-.11,0-1.5,1.39-1.5,1.5v54.5h145v33h-183V87.89h175Z"/>
  <path class="cls-1" d="M719.93,371.89c3.61.29,8.01-1.27,10.55,1.95l29.45,44.05v-46h10v68c-3.32-.33-7.53,1.17-10.03-1.47-9.79-14.9-19.03-30.6-29.97-44.53v46h-10v-68Z"/>
  <path class="cls-1" d="M995.93,529.89v-45h10v67c-3.61-.29-8.01,1.27-10.55-1.95l-29.45-44.05v46h-10v-67c3.23.4,7.97-1.08,10.49,1.01l29.51,43.99Z"/>
  <path class="cls-1" d="M696.43,484.89c1.58.32,7.13,4.05,8.54,5.46,9.16,9.18,6.31,28.11-7,31.58-1.09,1.55,15.2,28.85,13.96,29.95-3.06-.52-9.6.98-12.01-.48-2.89-1.76-10.22-23.63-13.47-26.53-2.44-2.18-9.12-.47-12.51-.99v28h-11v-67c9.68,1.36,24.49-1.83,33.5,0h-.01ZM673.93,514.89h16.5c1.09,0,6.07-2.79,7.06-3.94,5.42-6.27.43-17.06-7.06-17.06h-16.5v21Z"/>
  <path class="cls-1" d="M1250.43,484.89c18.08,3.01,20.22,32.73,1.51,37.49l14.99,29.51c-3.06-.52-9.6.98-12.01-.48-2.89-1.76-10.22-23.63-13.47-26.53-2.44-2.18-9.12-.47-12.51-.99v28h-11v-67c9.83,1.16,23.13-1.56,32.5,0h-.01ZM1228.93,514.89h16.5c.85,0,5.66-2.52,6.53-3.47,2.9-3.15,2.9-10.91,0-14.06-.87-.95-5.68-3.47-6.53-3.47h-16.5v21Z"/>
  <path class="cls-1" d="M872.43,371.89c21.77,2.71,25.57,30.45,5.52,38.49l14.97,29.5c-3.39-.51-10.06,1.19-12.51-.98-3.55-3.16-10.74-25.71-14.48-27.52-2-.96-12.01-1.05-12.01,1.01v27.5h-10v-68c8.99.81,19.74-1.09,28.5,0h.01ZM853.93,401.89h19.5c5.32,0,8.91-11.58,4.53-16.53-.59-.67-5.18-3.47-5.53-3.47h-18.5v20Z"/>
  <path class="cls-1" d="M1088.93,494.89v18h28v10h-28v19h33v10h-44v-66.5c0-.11,1.39-1.5,1.5-1.5h41c2.2,0,2.2,11,0,11h-31.5Z"/>
  <path class="cls-1" d="M1202.43,514.89c3,.93,1.18,17.91.24,21.24-5.47,19.47-35.4,21.73-44.95,4.47-4.09-7.4-3.94-34.51-.98-42.39,8.34-22.21,45.19-17.5,46.19,6.68-2.72-.4-6.97.69-9.37-.13-1.58-.54-2.34-5.23-4.59-7.41-6.66-6.46-19.25-4.09-22.1,4.99-1.59,5.07-1.59,22.32-.95,28.06,2.29,20.55,31.57,13.36,27-6.5h-14v-9c5.91,1.14,18.54-1.53,23.5,0h0Z"/>
  <path class="cls-1" d="M951.93,402.89c-.23,10.31.58,22.48-7.11,30.39-10.54,10.85-32.35,8.45-39.45-5.33-3.95-7.67-3.86-38.02.72-45.4,11.64-18.74,43.84-12.38,44.84,10.34-2.7-.41-7,.69-9.37-.13-1.51-.53-3.28-6.91-6.1-8.9-4.96-3.49-13.57-3.24-17.95,1.11-6.06,6.02-5.18,27.96-3.13,35.98,4.3,16.88,30.94,8.98,26.56-9.06h-14v-9h25-.01Z"/>
  <path class="cls-1" d="M797.93,381.89v19h28c-.07,1.88.69,10-1.5,10h-26.5v19h33c-.07,1.88.69,10-1.5,10h-42.5v-68h42.5c2.18,0,2.18,10,0,10h-31.5Z"/>
  <path class="cls-1" d="M673.93,381.89v19h28c-.07,1.88.69,10-1.5,10h-26.5v19h33c-.07,1.88.69,10-1.5,10h-42.5v-68h42.5c2.18,0,2.18,10,0,10h-31.5Z"/>
  <path class="cls-1" d="M1296.69,484.15c12.09-1.71,26.39,5.32,28.16,18.32.91,6.68.8,30.66-1.43,36.4-6.63,17.08-34.85,17.72-43.7,1.72-4.1-7.42-3.88-34.4-1-42.41,2.63-7.3,10.34-12.95,17.96-14.03h.01ZM1310.59,497.23c-7.1-7.11-20.12-3.34-22.22,6.61-1.11,5.26-1.11,23.85,0,29.11,2.69,12.79,20.98,13.21,25.09.98,2.51-7.49,2.83-30.98-2.87-36.69h0Z"/>
  <path class="cls-1" d="M912.69,484.15c13.06-1.86,26.47,5.63,28.13,19.35.89,7.31.9,27.83-1.41,34.37-6.71,18.97-37.47,19.13-44.68.72-2.68-6.84-2.92-33.9-.29-40.69s10.82-12.69,18.25-13.75h0ZM926.59,497.23c-4.49-4.7-14.83-4.7-19.32,0-5.5,5.75-4.94,28.24-3.11,35.94,2.48,10.41,16.95,13.06,23.21,4.66,4.61-6.18,3.99-27.31,2.14-35.01-.37-1.55-1.82-4.45-2.91-5.59h-.01Z"/>
  <path class="cls-1" d="M1249.93,371.89v10h-33v19h28v9h-26.5c-.11,0-1.5,1.39-1.5,1.5v18.5h33v10h-43v-68h43Z"/>
  <path class="cls-1" d="M767.93,484.89v9h-31.5c-.11,0-1.5,1.39-1.5,1.5v17.5h28v10h-28v19h33v10h-43v-67h43Z"/>
  <path class="cls-1" d="M846.93,525.89v26h-11v-66.5c0-.11,1.39-1.5,1.5-1.5h25c.99,0,7.4,1.69,8.79,2.21,15.88,5.94,16.64,29.68,1.61,37.2-.98.49-6.88,2.59-7.41,2.59h-18.5.01ZM846.93,515.89h17.5c4.49,0,8.77-7.13,8.56-11.49s-5.19-10.51-9.56-10.51h-16.5v22Z"/>
  <path class="cls-1" d="M1413.93,525.89v26h-11v-66.5c0-.11,1.39-1.5,1.5-1.5h25c.44,0,6.4,1.38,7.32,1.68,15.07,4.84,18.35,27.47,5.51,36.15-1.5,1.01-8.49,4.17-9.83,4.17h-18.5ZM1413.93,515.89h17.5c4.25,0,8.27-7.18,8.16-11.34-.12-4.47-4.73-10.66-9.16-10.66h-16.5v22Z"/>
  <path class="cls-1" d="M1118.79,372.03l24.14,67.86c-2.73-.47-8.99.91-11.04-.45s-2.89-12.49-5.59-13.41c-1.17-.4-23.47-.55-24.75-.2-1.4,1.87-3.8,13.31-4.75,13.92-1.41.9-8.52-.35-10.86.13l23.9-67.38,8.96-.48h-.01ZM1123.93,416.89l-9.5-28.01-9.5,28.01h19Z"/>
  <path class="cls-1" d="M1348.93,484.89v44.5c0,6.82,6.72,13.33,13.53,13.55,7.21.23,14.47-6.34,14.47-13.55v-44.5h10v49.5c0,.38-2.45,6.12-2.96,7.04-7.9,14-33.43,14.34-41.68.61-.65-1.08-3.36-7.05-3.36-7.64v-49.5h10Z"/>
  <path class="cls-1" d="M795.71,484.17c9.45-1.14,17.99.96,25.22,7.25-5.77,10.21-7.02,5.01-13.94,2.91-8.89-2.69-21.52.07-18.85,11.83,1.71,7.52,18.89,6.58,25.46,9.54,13.04,5.88,12.57,25.44.67,33.01-8.25,5.25-29.93,4.62-36.85-2.82-3.71-3.99,3.64-9.49,5.81-8.91.91.24,3.64,2.93,6.16,3.94,8.8,3.5,26.86,2.29,22.9-10.86-3.61-11.97-27.85-2.26-33.84-19.19-4.67-13.18,3.71-25.07,17.27-26.71h-.01Z"/>
  <path class="cls-1" d="M1032.21,509.61c6.44,6.37,29.39.06,32.49,17.01,3.94,21.55-13.21,27.22-31.27,25.27-3.34-.36-13.38-4.4-15.03-6.99s4.17-8.06,6.04-8.05c1.55,0,3.47,2.71,5.48,3.56,5.86,2.47,12.97,3.55,19.02.98,5.69-2.42,7.69-9.05,4.32-14.23-4.5-6.91-29.91-1.35-33.09-17-5.5-27.08,25.89-33.37,42.77-18.74-5.69,11.87-11,1.89-20.67,1.85s-17.16,9.31-10.05,16.34h0Z"/>
  <path class="cls-1" d="M1050.67,372.13c9.06-1.53,21.05-.04,27.23,7.33.22.97-6.15,6.25-6.6,6.33-1,.18-9.06-6.21-17.42-4.46-6.01,1.26-10.53,6.23-8.5,12.6,3.4,10.68,30.86,2.61,34.32,19.68,4.73,23.29-17.96,30.84-36.55,24.55-6.75-2.28-14.3-6.66-5.76-12.35,3.26-2.17,7.71,3.06,12.28,3.83,6.49,1.09,18.07,1.26,19.85-6.71,4.23-18.94-28.84-6.52-33.92-24.22-3.5-12.22,2.04-24.39,15.06-26.59h.01Z"/>
  <path class="cls-1" d="M1194.93,371.89v10h-32v20h28c-.07,1.88.69,10-1.5,10h-26.5v28h-11v-68h43Z"/>
  <path class="cls-1" d="M1304.93,371.89v10h-18v56.5c0,2.22-12,2.22-12,0v-56.5h-18v-10h48Z"/>
  <path class="cls-1" d="M1326.93,411.39c-1.58-7.71-14.79-26.36-18.22-35.78-.45-1.25-1.08-2.29-.78-3.71,3.01.45,9.5-1.11,11.53.97l12.97,28.04,13.4-28.39c.76-1.01,8.75-.87,10.62-.62,1.38.18,1.74-.55,1.46,1.47l-19.98,38.03v28.5h-11c-1.16-8.26,1.57-20.83,0-28.5h0Z"/>
  <path class="cls-1" d="M986.93,439.89c-2.47-.37-9.24.96-10.56-.94-1.66-2.38.44-22.94-.66-28.34-1.87-9.16-14.32-25.21-17.99-35.01-.39-1.05-1.01-2-.8-3.21.06-.78,9.7-1.16,11.53.48,2.66,2.38,9.24,20.26,12,25.04.59,1.02-.06,2.51,1.98,1.98,1.45-.38,9.92-24.28,13-27.02,2.38-2.12,8.27-.52,11.51-.98l-20,40.49v27.5h-.01Z"/>
</svg>