<?xml version="1.0" encoding="UTF-8"?>
<svg id="Layer_1" data-name="Layer 1" xmlns="http://www.w3.org/2000/svg" viewBox="0 0 879.12 118.98">
  <defs>
    <style>
      .cls-1 {
        fill: currentColor;
      }
    </style>
  </defs>
  <polygon class="cls-1" points="0 107.1 19.03 13.62 47.75 13.78 75.43 63.33 86.41 13.57 113.89 13.57 94.86 107.06 67.14 106.89 39.46 58.34 28.97 107.1 0 107.1"/>
  <path class="cls-1" d="M620.38,107.1l21.46-92.56c.62-.81,9.73-1.76,12.02-1.96,17.75-1.56,60.14-4.66,64.98,18.84,3.85,18.69-7.71,37.24-26.53,40.87l16.98,34.81h-36.96l-11.49-29.86-7.49,29.86h-32.97ZM680.98,53.03c4.16-4.12,5.9-14.78-1.38-16.37-1.34-.29-9.86-.52-10.23-.17-.8.77-3.76,19.03-4.03,21.84,4.98-.26,12.02-1.72,15.64-5.31h0Z"/>
  <path class="cls-1" d="M792.19,14.61l-6.92,25.42c-1.34,1.06-20-7.4-27-2.06-7.9,6.03,8.16,9.77,12.01,11.88,16.9,9.25,25.51,20.1,14.13,39.04-14.6,24.31-48.14,22.59-72.13,16.22l7-26.86c8.62,1.99,23.61,8.91,31.88,4.4,10.79-5.89-7.64-11.85-11.58-14.18-7.07-4.19-16.22-9.57-17.33-18.56-4.31-34.67,44.79-43.97,69.93-35.3h.01Z"/>
  <path class="cls-1" d="M286.71,15.57l-12.11,26.74c-12.32-2.03-21.55-5.19-32.78,2.67-9.97,6.97-15.85,23.94-4.55,32.27,9.7,7.15,20.97,2.29,31.46.02-2.66,5.41-3.44,24.27-6.49,27.86-2.85,3.36-26.03,4.42-30.96,3.96-67.07-8.73-27.32-121.56,55.43-93.5v-.02Z"/>
  <path class="cls-1" d="M591.41,13.57l-5.94,24.44-30.98.49-2.04,12.89h30.97c-.45,7.74-3.24,15.26-5.13,22.76l-31.74.23-7.09,32.74h-33.97l20.98-93.53h64.94v-.02Z"/>
  <path class="cls-1" d="M150.35,13.57l11.5,36.81,25.46-36.81h30.47c.32,1.5-.55,2.18-1.19,3.29-17.91,30.07-44.79,58.99-61.75,90.24h-32.97c3.24-8.23,13.51-16.98,16.82-24.53.55-1.25,1.39-2.32,1.2-3.81L118.87,13.57h31.48Z"/>
  <path class="cls-1" d="M879.12,13.57c-.79,4-3.94,26.08-5.96,27.4l-23.97.51-15.03,65.62h-33.97l14.99-65.67h-24.98c1.9-9.42,4.65-19.22,8.49-27.86h80.43Z"/>
  <polygon class="cls-1" points="633.37 13.57 612.39 107.1 578.42 107.1 599.4 13.57 633.37 13.57"/>
  <path class="cls-1" d="M344.66,96.16c-.17-.16-.22-1.7-.97-2.48-1.79-1.86-8.03-10.18-8.68-10.37-2.54-.75-12.27,5.72-13.33,4.88.94-2.54,1.53-5.3,2-7.95,1.52-.31,8.41-2.49,8.82-3.15,1.35-2.18-.59-9.48-.82-12.29-.09-1.09-.73-3.71.98-3.46,8.6,48.02,87.27,51.35,108.63,11.17l3.26-9.18-.07,10.36-2.91,10.53c-4.9,5.28-8.48,11.4-14.97,15.42l11.33,10.38,53.58-54.65c.92,2.66,1.86,6.09.05,8.52-17.72,18.52-35.15,37.33-53.63,55.09-2.07.37-13.9-13.98-16.99-15.69-24.51,11.01-54.63,9.37-76.28-7.12h0Z"/>
  <path class="cls-1" d="M322.68.63l-20.98,113.43-8.91-1.08c6.27-33.68,11.34-67.94,18.22-101.59,1.57-7.69.85-13.32,11.67-10.76h0Z"/>
  <path class="cls-1" d="M405.6,31.48c-2.63,2.71-5.37,5.29-7.99,7.96-10.13-2.7-20.32-.31-29.97,2.99-2.21-2.03-4.01-4.12-5.99-5.97,12.02-9.15,29.95-9.82,43.96-4.98h-.01Z"/>
  <path class="cls-1" d="M464.54,60.34c.02-1.95-1.35-2.77-2.48-4-7.95-8.61-17.13-16.24-25.99-23.9-1.28,0-11.07,9.47-11.38,10.69-.53,2.08,8.92,14.45,2.9,17.21-.03-2.61-6.11-11.26-8.37-10.87-1.25.22-9.15,9.08-10.63,10.87-.82-.87-4.97-3.66-4.97-4.48l32.44-33.32,33.03,31.83c1.31,2.52-3.17,4.51-4.56,5.96h.01Z"/>
  <path class="cls-1" d="M409.59,82.23c-10.6,3.99-8.41,1.08-15.51-4.98-1.08-.92-2.87-1.42-3.47-1.98-1.15-1.09-8.22-8.41-8.47-8.97-1.05-2.33-.52-6.26-.52-8.94l27.97,24.88h0Z"/>
  <path class="cls-1" d="M355.65,74.27c-1.05-1.03-4.42-2.63-3.99-4.46,1.04-2.3,10.06-2.44,8.98-4.98-.24-.55-7.96-8.3-8.55-8.43-2.77-.62-2.38,4.6-4.42,4.93-.36-3.06.76-7.1-.53-9.93-1.51-3.32-12.48-11.54-15.47-14.94.31-1.84-.11-4.44,1.49-5.97l38.45,35.32-15.96,8.46h0Z"/>
  <path class="cls-1" d="M849.08,90.08c-4.69,0-8.5,3.81-8.5,8.5s3.81,8.5,8.5,8.5,8.5-3.81,8.5-8.5-3.81-8.5-8.5-8.5M849.08,105.38c-3.76,0-6.8-3.04-6.8-6.8s3.04-6.8,6.8-6.8,6.8,3.04,6.8,6.8-3.04,6.8-6.8,6.8M849.29,99.66h-1.22v2.75h-1.54v-7.47h2.77c.73-.04,1.45.16,2.04.59.5.42.76,1.05.71,1.7.02.45-.1.89-.33,1.27-.24.38-.59.68-1,.85l1.61,3.05v.09h-1.65l-1.39-2.75M848.07,98.5h1.24c.32.02.64-.09.89-.3.23-.22.34-.53.31-.85.03-.31-.08-.62-.3-.85-.25-.22-.58-.33-.92-.3h-1.23v2.3Z"/>
</svg>